<svg width="1150" height="1150" viewBox="0 0 1150 1150" fill="none" xmlns="http://www.w3.org/2000/svg">
<g clip-path="url(#clip0)">
<rect width="1150" height="1150" rx="200" fill="#141414"/>
<path opacity="0.3" d="M119.4 690C21.8004 605.2 8.10041 686 1.60041 687.2C1.60041 687.2 -1.29959 706.7 1.60041 777.8L953 1326.9V940.5C844.8 746.8 773.2 611.5 702.8 674C580.8 782.1 521.4 854.7 376.3 704.7C290.3 615.8 236.6 791.8 119.4 690Z" fill="url(#paint0_linear)"/>
<path opacity="0.3" d="M245.1 758.2C147.5 673.4 133.8 754.1 127.2 755.4C127.2 755.4 124.3 774.9 127.2 846L1078.6 1395.1V1008.7C924.6 785.1 823.1 826.7 735.1 859C648.9 890.6 617.3 824.6 508.2 730.5C418.5 653.1 362.3 860 245.1 758.2Z" fill="url(#paint1_linear)"/>
<path d="M766.8 669C766.8 661 762.1 651.9 756.4 648.6C750.6 645.3 746 649 746 657C746 665 750.7 674.1 756.4 677.4C762.1 680.8 766.8 677 766.8 669Z" fill="#F2994A"/>
<path d="M490.9 722.8C490.9 715.1 486.1 706.1 480.1 702.7C474.1 699.3 469.3 702.7 469.3 710.4C469.3 718.1 474.1 727.1 480.1 730.5C486 733.9 490.9 730.5 490.9 722.8Z" fill="#F2994A"/>
<path opacity="0.07" d="M700.2 157.3L884.8 263.8V626.6L700.2 520.1V157.3Z" fill="white"/>
<path opacity="0.3" d="M848.8 295L664.2 188.5L664.1 551.3L743.9 597.3L756.5 622.1L769 611.9L848.8 657.8V295Z" fill="url(#paint2_linear)"/>
<path opacity="0.1" d="M824.6 408.1C824.6 419.7 822.9 430.3 819.7 439.2C816.5 448.1 811.8 455.1 805.9 459.9C800 464.7 792.9 467.1 785.2 467.1C777.5 467.1 769.1 464.6 760.8 459.7V371.2L824.6 408.1Z" fill="white"/>
<path opacity="0.3" d="M760.8 459.8C749.6 453.3 738.6 442.9 728.9 429.5C719.2 416.1 711.1 400.3 705.5 383.6C699.9 366.9 696.9 349.9 696.9 334.4C696.9 318.9 699.9 305.3 705.5 295.1L760.8 371.3V459.8Z" fill="white"/>
<path d="M824.6 408.1C824.6 388.6 820 367 811.4 346.6C802.8 326.2 790.8 308.2 777.3 295.3C763.7 282.4 749.3 275.4 736.3 275.4C723.3 275.4 712.5 282.3 705.4 295.1L760.7 371.3L824.6 408.1Z" fill="#F2994A"/>
<path opacity="0.15" d="M688.3 463.6L800.8 528.5V542.1L688.3 477.2V463.6Z" fill="white"/>
<path opacity="0.15" d="M688.3 490.2L824.7 568.9V582.5L688.3 503.8V490.2Z" fill="white"/>
<path opacity="0.15" d="M688.3 516.8L776.7 567.8V581.4L688.3 530.4V516.8Z" fill="white"/>
<path opacity="0.07" d="M423.3 211.5L607.9 318V680.8L423.3 574.3V211.5Z" fill="white"/>
<path opacity="0.3" d="M572.4 349.4L387.8 242.9L387.7 605.8L467.6 651.8L480.1 676.5L492.6 666.3L572.4 712.2V349.4Z" fill="url(#paint3_linear)"/>
<path opacity="0.1" d="M548.2 462.6C548.2 478.1 545.2 491.7 539.6 501.9C534 512.1 525.9 518.6 516.2 520.8L484.3 425.7L548.2 462.6Z" fill="white"/>
<path opacity="0.3" d="M516.3 520.8C504.1 523.5 490 519.2 476 508.7C462.1 498.1 449.1 481.8 439.2 462.3L484.4 425.8L516.3 520.8Z" fill="white"/>
<path d="M548.2 462.6C548.2 448 545.6 432.2 540.7 416.5C535.7 400.8 528.6 385.7 519.9 372.6C511.2 359.5 501.1 348.7 490.7 341.2C480.2 333.7 469.7 329.8 460 329.8C450.3 329.8 441.7 333.6 435.1 341C428.4 348.4 423.9 359.1 421.8 372.2C419.8 385.3 420.3 400.3 423.3 416C426.3 431.7 431.8 447.5 439.3 462.1L484.5 425.6L548.2 462.6Z" fill="#F2994A"/>
<path opacity="0.15" d="M411.9 518.1L539.6 591.8V605.4L411.9 531.7V518.1Z" fill="white"/>
<path opacity="0.15" d="M411.9 544.6L544.5 621.2V634.8L411.9 558.2V544.6Z" fill="white"/>
<path opacity="0.15" d="M411.9 571.2L500.3 622.2V635.8L411.9 584.8V571.2Z" fill="white"/>
</g>
<defs>
<linearGradient id="paint0_linear" x1="650.452" y1="456.887" x2="529.296" y2="841.841" gradientUnits="userSpaceOnUse">
<stop stop-color="white"/>
<stop offset="1" stop-color="white" stop-opacity="0"/>
</linearGradient>
<linearGradient id="paint1_linear" x1="702.898" y1="622.6" x2="634.087" y2="934.08" gradientUnits="userSpaceOnUse">
<stop stop-color="white"/>
<stop offset="1" stop-color="white" stop-opacity="0"/>
</linearGradient>
<linearGradient id="paint2_linear" x1="756.45" y1="249.203" x2="756.45" y2="697.557" gradientUnits="userSpaceOnUse">
<stop stop-color="white" stop-opacity="0"/>
<stop offset="1" stop-color="white"/>
</linearGradient>
<linearGradient id="paint3_linear" x1="480.05" y1="300.877" x2="480.05" y2="762.152" gradientUnits="userSpaceOnUse">
<stop stop-color="white" stop-opacity="0"/>
<stop offset="1" stop-color="white"/>
</linearGradient>
<clipPath id="clip0">
<rect width="1150" height="1150" fill="white"/>
</clipPath>
</defs>
</svg>
