<?xml version="1.0" encoding="utf-8"?>
<!-- Generator: Adobe Illustrator 25.4.1, SVG Export Plug-In . SVG Version: 6.00 Build 0)  -->
<svg version="1.1" id="Layer_1" xmlns="http://www.w3.org/2000/svg" xmlns:xlink="http://www.w3.org/1999/xlink" x="0px" y="0px"
	 viewBox="0 0 1280 1141.01" style="enable-background:new 0 0 1280 1141.01;" xml:space="preserve">
<style type="text/css">
	.st0{display:none;fill:#333333;stroke:#333333;stroke-miterlimit:10;}
	.st1{display:none;}
	.st2{display:inline;fill:none;stroke:#000000;stroke-width:0.25;stroke-miterlimit:10;}
	.st3{opacity:0.55;fill:#B3B3B3;}
	.st4{display:none;fill:#FDC830;stroke:#000000;stroke-linecap:round;stroke-miterlimit:10;}
	.st5{display:none;fill:none;stroke:#FDC830;stroke-width:13;stroke-linecap:round;stroke-linejoin:round;stroke-miterlimit:10;}
	.st6{fill:#EA580C;stroke:#EA580C;stroke-miterlimit:10;}
	.st7{display:none;fill:#FDE5A7;}
	.st8{fill:#EA580C;}
	.st9{fill:#B04209;stroke:#B04209;stroke-miterlimit:10;}
	.st10{fill:#FBBF24;}
	.st11{fill:#BC8F1B;}
	.st12{opacity:0.1;fill:#999999;}
	.st13{opacity:0.29;fill:#4D4D4D;}
	.st14{fill:#999999;}
	.st15{opacity:0.55;fill:#333333;}
	.st16{fill:#333333;}
	.st17{opacity:0.44;fill:#999999;}
	.st18{fill:#ADADAD;}
	.st19{fill:url(#SVGID_1_);}
	.st20{fill:url(#SVGID_00000087385673472128206380000005532168247413016473_);}
	.st21{fill:url(#SVGID_00000004545474649339136240000018148459185281288078_);}
	.st22{fill:url(#SVGID_00000036224435541020898780000010771299594277781908_);}
	.st23{fill:url(#SVGID_00000103965095755833955340000014226414478758603692_);}
	.st24{fill:url(#SVGID_00000171682542592274124300000007194305878537899169_);}
	.st25{fill:url(#SVGID_00000171719218322975756560000013986434886345058237_);}
	.st26{fill:url(#SVGID_00000116193637083964620750000010491736368541024186_);}
	.st27{fill:url(#SVGID_00000117651248014027700040000008412596179044426411_);}
	.st28{fill:url(#SVGID_00000011006623525243028270000005949715617000435640_);}
	.st29{fill:url(#SVGID_00000010281459396659561030000005056796896010769075_);}
	.st30{fill:url(#SVGID_00000080174758204906006490000001789786469526650245_);}
	.st31{opacity:0.65;fill:#F2F2F2;}
	.st32{opacity:0.1;fill:#CCCCCC;}
	.st33{opacity:0.1;fill:#F2F2F2;}
	.st34{fill:none;stroke:#000000;stroke-miterlimit:10;}
</style>
<rect y="0.74" class="st0" width="1280.62" height="1140.27"/>
<g class="st1">
	<polygon class="st2" points="640,1480.32 2221.95,566.9 640,-346.51 -941.95,566.9 	"/>
	<line class="st2" x1="-928.87" y1="574.45" x2="653.07" y2="-338.96"/>
	<line class="st2" x1="-915.8" y1="582" x2="666.15" y2="-331.41"/>
	<line class="st2" x1="-902.73" y1="589.55" x2="679.22" y2="-323.87"/>
	<line class="st2" x1="-889.65" y1="597.1" x2="692.3" y2="-316.32"/>
	<line class="st2" x1="-876.58" y1="604.65" x2="705.37" y2="-308.77"/>
	<line class="st2" x1="-863.5" y1="612.2" x2="718.44" y2="-301.22"/>
	<line class="st2" x1="-850.43" y1="619.75" x2="731.52" y2="-293.67"/>
	<line class="st2" x1="-837.36" y1="627.3" x2="744.59" y2="-286.12"/>
	<line class="st2" x1="-824.28" y1="634.84" x2="757.67" y2="-278.57"/>
	<line class="st2" x1="-811.21" y1="642.39" x2="770.74" y2="-271.02"/>
	<line class="st2" x1="-798.13" y1="649.94" x2="783.81" y2="-263.47"/>
	<line class="st2" x1="-785.06" y1="657.49" x2="796.89" y2="-255.93"/>
	<line class="st2" x1="-771.99" y1="665.04" x2="809.96" y2="-248.38"/>
	<line class="st2" x1="-758.91" y1="672.59" x2="823.04" y2="-240.83"/>
	<line class="st2" x1="-745.84" y1="680.14" x2="836.11" y2="-233.28"/>
	<line class="st2" x1="-732.76" y1="687.69" x2="849.18" y2="-225.73"/>
	<line class="st2" x1="-719.69" y1="695.24" x2="862.26" y2="-218.18"/>
	<line class="st2" x1="-706.62" y1="702.78" x2="875.33" y2="-210.63"/>
	<line class="st2" x1="-693.54" y1="710.33" x2="888.41" y2="-203.08"/>
	<line class="st2" x1="-680.47" y1="717.88" x2="901.48" y2="-195.53"/>
	<line class="st2" x1="-667.39" y1="725.43" x2="914.55" y2="-187.99"/>
	<line class="st2" x1="-654.32" y1="732.98" x2="927.63" y2="-180.44"/>
	<line class="st2" x1="-641.25" y1="740.53" x2="940.7" y2="-172.89"/>
	<line class="st2" x1="-628.17" y1="748.08" x2="953.77" y2="-165.34"/>
	<line class="st2" x1="-615.1" y1="755.63" x2="966.85" y2="-157.79"/>
	<line class="st2" x1="-602.03" y1="763.18" x2="979.92" y2="-150.24"/>
	<line class="st2" x1="-588.95" y1="770.72" x2="993" y2="-142.69"/>
	<line class="st2" x1="-575.88" y1="778.27" x2="1006.07" y2="-135.14"/>
	<line class="st2" x1="-562.8" y1="785.82" x2="1019.14" y2="-127.59"/>
	<line class="st2" x1="-549.73" y1="793.37" x2="1032.22" y2="-120.05"/>
	<line class="st2" x1="-536.66" y1="800.92" x2="1045.29" y2="-112.5"/>
	<line class="st2" x1="-523.58" y1="808.47" x2="1058.37" y2="-104.95"/>
	<line class="st2" x1="-510.51" y1="816.02" x2="1071.44" y2="-97.4"/>
	<line class="st2" x1="-497.43" y1="823.57" x2="1084.51" y2="-89.85"/>
	<line class="st2" x1="-484.36" y1="831.12" x2="1097.59" y2="-82.3"/>
	<line class="st2" x1="-471.29" y1="838.66" x2="1110.66" y2="-74.75"/>
	<line class="st2" x1="-458.21" y1="846.21" x2="1123.74" y2="-67.2"/>
	<line class="st2" x1="-445.14" y1="853.76" x2="1136.81" y2="-59.65"/>
	<line class="st2" x1="-432.06" y1="861.31" x2="1149.88" y2="-52.11"/>
	<line class="st2" x1="-418.99" y1="868.86" x2="1162.96" y2="-44.56"/>
	<line class="st2" x1="-405.92" y1="876.41" x2="1176.03" y2="-37.01"/>
	<line class="st2" x1="-392.84" y1="883.96" x2="1189.11" y2="-29.46"/>
	<line class="st2" x1="-379.77" y1="891.51" x2="1202.18" y2="-21.91"/>
	<line class="st2" x1="-366.69" y1="899.06" x2="1215.25" y2="-14.36"/>
	<line class="st2" x1="-353.62" y1="906.6" x2="1228.33" y2="-6.81"/>
	<line class="st2" x1="-340.55" y1="914.15" x2="1241.4" y2="0.74"/>
	<line class="st2" x1="-327.47" y1="921.7" x2="1254.48" y2="8.29"/>
	<line class="st2" x1="-314.4" y1="929.25" x2="1267.55" y2="15.83"/>
	<line class="st2" x1="-301.32" y1="936.8" x2="1280.62" y2="23.38"/>
	<line class="st2" x1="-288.25" y1="944.35" x2="1293.7" y2="30.93"/>
	<line class="st2" x1="-275.18" y1="951.9" x2="1306.77" y2="38.48"/>
	<line class="st2" x1="-262.1" y1="959.45" x2="1319.85" y2="46.03"/>
	<line class="st2" x1="-249.03" y1="967" x2="1332.92" y2="53.58"/>
	<line class="st2" x1="-235.95" y1="974.54" x2="1345.99" y2="61.13"/>
	<line class="st2" x1="-222.88" y1="982.09" x2="1359.07" y2="68.68"/>
	<line class="st2" x1="-209.81" y1="989.64" x2="1372.14" y2="76.23"/>
	<line class="st2" x1="-196.73" y1="997.19" x2="1385.22" y2="83.77"/>
	<line class="st2" x1="-183.66" y1="1004.74" x2="1398.29" y2="91.32"/>
	<line class="st2" x1="-170.58" y1="1012.29" x2="1411.36" y2="98.87"/>
	<line class="st2" x1="-157.51" y1="1019.84" x2="1424.44" y2="106.42"/>
	<line class="st2" x1="-144.44" y1="1027.39" x2="1437.51" y2="113.97"/>
	<line class="st2" x1="-131.36" y1="1034.94" x2="1450.58" y2="121.52"/>
	<line class="st2" x1="-118.29" y1="1042.48" x2="1463.66" y2="129.07"/>
	<line class="st2" x1="-105.22" y1="1050.03" x2="1476.73" y2="136.62"/>
	<line class="st2" x1="-92.14" y1="1057.58" x2="1489.81" y2="144.17"/>
	<line class="st2" x1="-79.07" y1="1065.13" x2="1502.88" y2="151.71"/>
	<line class="st2" x1="-65.99" y1="1072.68" x2="1515.95" y2="159.26"/>
	<line class="st2" x1="-52.92" y1="1080.23" x2="1529.03" y2="166.81"/>
	<line class="st2" x1="-39.85" y1="1087.78" x2="1542.1" y2="174.36"/>
	<line class="st2" x1="-26.77" y1="1095.33" x2="1555.18" y2="181.91"/>
	<line class="st2" x1="-13.7" y1="1102.88" x2="1568.25" y2="189.46"/>
	<line class="st2" x1="-0.62" y1="1110.43" x2="1581.32" y2="197.01"/>
	<line class="st2" x1="12.45" y1="1117.97" x2="1594.4" y2="204.56"/>
	<line class="st2" x1="25.52" y1="1125.52" x2="1607.47" y2="212.11"/>
	<line class="st2" x1="38.6" y1="1133.07" x2="1620.55" y2="219.66"/>
	<line class="st2" x1="51.67" y1="1140.62" x2="1633.62" y2="227.2"/>
	<line class="st2" x1="64.75" y1="1148.17" x2="1646.69" y2="234.75"/>
	<line class="st2" x1="77.82" y1="1155.72" x2="1659.77" y2="242.3"/>
	<line class="st2" x1="90.89" y1="1163.27" x2="1672.84" y2="249.85"/>
	<line class="st2" x1="103.97" y1="1170.82" x2="1685.92" y2="257.4"/>
	<line class="st2" x1="117.04" y1="1178.37" x2="1698.99" y2="264.95"/>
	<line class="st2" x1="130.12" y1="1185.91" x2="1712.06" y2="272.5"/>
	<line class="st2" x1="143.19" y1="1193.46" x2="1725.14" y2="280.05"/>
	<line class="st2" x1="156.26" y1="1201.01" x2="1738.21" y2="287.6"/>
	<line class="st2" x1="169.34" y1="1208.56" x2="1751.29" y2="295.14"/>
	<line class="st2" x1="182.41" y1="1216.11" x2="1764.36" y2="302.69"/>
	<line class="st2" x1="195.49" y1="1223.66" x2="1777.43" y2="310.24"/>
	<line class="st2" x1="208.56" y1="1231.21" x2="1790.51" y2="317.79"/>
	<line class="st2" x1="221.63" y1="1238.76" x2="1803.58" y2="325.34"/>
	<line class="st2" x1="234.71" y1="1246.31" x2="1816.66" y2="332.89"/>
	<line class="st2" x1="247.78" y1="1253.85" x2="1829.73" y2="340.44"/>
	<line class="st2" x1="260.86" y1="1261.4" x2="1842.8" y2="347.99"/>
	<line class="st2" x1="273.93" y1="1268.95" x2="1855.88" y2="355.54"/>
	<line class="st2" x1="287" y1="1276.5" x2="1868.95" y2="363.08"/>
	<line class="st2" x1="300.08" y1="1284.05" x2="1882.03" y2="370.63"/>
	<line class="st2" x1="313.15" y1="1291.6" x2="1895.1" y2="378.18"/>
	<line class="st2" x1="326.23" y1="1299.15" x2="1908.17" y2="385.73"/>
	<line class="st2" x1="339.3" y1="1306.7" x2="1921.25" y2="393.28"/>
	<line class="st2" x1="352.37" y1="1314.25" x2="1934.32" y2="400.83"/>
	<line class="st2" x1="365.45" y1="1321.79" x2="1947.39" y2="408.38"/>
	<line class="st2" x1="378.52" y1="1329.34" x2="1960.47" y2="415.93"/>
	<line class="st2" x1="391.59" y1="1336.89" x2="1973.54" y2="423.48"/>
	<line class="st2" x1="404.67" y1="1344.44" x2="1986.62" y2="431.02"/>
	<line class="st2" x1="417.74" y1="1351.99" x2="1999.69" y2="438.57"/>
	<line class="st2" x1="430.82" y1="1359.54" x2="2012.76" y2="446.12"/>
	<line class="st2" x1="443.89" y1="1367.09" x2="2025.84" y2="453.67"/>
	<line class="st2" x1="456.96" y1="1374.64" x2="2038.91" y2="461.22"/>
	<line class="st2" x1="470.04" y1="1382.19" x2="2051.99" y2="468.77"/>
	<line class="st2" x1="483.11" y1="1389.73" x2="2065.06" y2="476.32"/>
	<line class="st2" x1="496.19" y1="1397.28" x2="2078.13" y2="483.87"/>
	<line class="st2" x1="509.26" y1="1404.83" x2="2091.21" y2="491.42"/>
	<line class="st2" x1="522.33" y1="1412.38" x2="2104.28" y2="498.96"/>
	<line class="st2" x1="535.41" y1="1419.93" x2="2117.36" y2="506.51"/>
	<line class="st2" x1="548.48" y1="1427.48" x2="2130.43" y2="514.06"/>
	<line class="st2" x1="561.56" y1="1435.03" x2="2143.5" y2="521.61"/>
	<line class="st2" x1="574.63" y1="1442.58" x2="2156.58" y2="529.16"/>
	<line class="st2" x1="587.7" y1="1450.13" x2="2169.65" y2="536.71"/>
	<line class="st2" x1="600.78" y1="1457.67" x2="2182.73" y2="544.26"/>
	<line class="st2" x1="613.85" y1="1465.22" x2="2195.8" y2="551.81"/>
	<line class="st2" x1="626.93" y1="1472.77" x2="2208.87" y2="559.36"/>
	<line class="st2" x1="2208.87" y1="574.45" x2="626.93" y2="-338.96"/>
	<line class="st2" x1="2195.8" y1="582" x2="613.85" y2="-331.41"/>
	<line class="st2" x1="2182.73" y1="589.55" x2="600.78" y2="-323.87"/>
	<line class="st2" x1="2169.65" y1="597.1" x2="587.7" y2="-316.32"/>
	<line class="st2" x1="2156.58" y1="604.65" x2="574.63" y2="-308.77"/>
	<line class="st2" x1="2143.5" y1="612.2" x2="561.56" y2="-301.22"/>
	<line class="st2" x1="2130.43" y1="619.75" x2="548.48" y2="-293.67"/>
	<line class="st2" x1="2117.36" y1="627.3" x2="535.41" y2="-286.12"/>
	<line class="st2" x1="2104.28" y1="634.84" x2="522.33" y2="-278.57"/>
	<line class="st2" x1="2091.21" y1="642.39" x2="509.26" y2="-271.02"/>
	<line class="st2" x1="2078.13" y1="649.94" x2="496.19" y2="-263.47"/>
	<line class="st2" x1="2065.06" y1="657.49" x2="483.11" y2="-255.93"/>
	<line class="st2" x1="2051.99" y1="665.04" x2="470.04" y2="-248.38"/>
	<line class="st2" x1="2038.91" y1="672.59" x2="456.96" y2="-240.83"/>
	<line class="st2" x1="2025.84" y1="680.14" x2="443.89" y2="-233.28"/>
	<line class="st2" x1="2012.76" y1="687.69" x2="430.82" y2="-225.73"/>
	<line class="st2" x1="1999.69" y1="695.24" x2="417.74" y2="-218.18"/>
	<line class="st2" x1="1986.62" y1="702.78" x2="404.67" y2="-210.63"/>
	<line class="st2" x1="1973.54" y1="710.33" x2="391.59" y2="-203.08"/>
	<line class="st2" x1="1960.47" y1="717.88" x2="378.52" y2="-195.53"/>
	<line class="st2" x1="1947.39" y1="725.43" x2="365.45" y2="-187.99"/>
	<line class="st2" x1="1934.32" y1="732.98" x2="352.37" y2="-180.44"/>
	<line class="st2" x1="1921.25" y1="740.53" x2="339.3" y2="-172.89"/>
	<line class="st2" x1="1908.17" y1="748.08" x2="326.23" y2="-165.34"/>
	<line class="st2" x1="1895.1" y1="755.63" x2="313.15" y2="-157.79"/>
	<line class="st2" x1="1882.03" y1="763.18" x2="300.08" y2="-150.24"/>
	<line class="st2" x1="1868.95" y1="770.72" x2="287" y2="-142.69"/>
	<line class="st2" x1="1855.88" y1="778.27" x2="273.93" y2="-135.14"/>
	<line class="st2" x1="1842.8" y1="785.82" x2="260.86" y2="-127.59"/>
	<line class="st2" x1="1829.73" y1="793.37" x2="247.78" y2="-120.05"/>
	<line class="st2" x1="1816.66" y1="800.92" x2="234.71" y2="-112.5"/>
	<line class="st2" x1="1803.58" y1="808.47" x2="221.63" y2="-104.95"/>
	<line class="st2" x1="1790.51" y1="816.02" x2="208.56" y2="-97.4"/>
	<line class="st2" x1="1777.43" y1="823.57" x2="195.49" y2="-89.85"/>
	<line class="st2" x1="1764.36" y1="831.12" x2="182.41" y2="-82.3"/>
	<line class="st2" x1="1751.29" y1="838.66" x2="169.34" y2="-74.75"/>
	<line class="st2" x1="1738.21" y1="846.21" x2="156.26" y2="-67.2"/>
	<line class="st2" x1="1725.14" y1="853.76" x2="143.19" y2="-59.65"/>
	<line class="st2" x1="1712.06" y1="861.31" x2="130.12" y2="-52.11"/>
	<line class="st2" x1="1698.99" y1="868.86" x2="117.04" y2="-44.56"/>
	<line class="st2" x1="1685.92" y1="876.41" x2="103.97" y2="-37.01"/>
	<line class="st2" x1="1672.84" y1="883.96" x2="90.89" y2="-29.46"/>
	<line class="st2" x1="1659.77" y1="891.51" x2="77.82" y2="-21.91"/>
	<line class="st2" x1="1646.69" y1="899.06" x2="64.75" y2="-14.36"/>
	<line class="st2" x1="1633.62" y1="906.6" x2="51.67" y2="-6.81"/>
	<line class="st2" x1="1620.55" y1="914.15" x2="38.6" y2="0.74"/>
	<line class="st2" x1="1607.47" y1="921.7" x2="25.52" y2="8.29"/>
	<line class="st2" x1="1594.4" y1="929.25" x2="12.45" y2="15.83"/>
	<line class="st2" x1="1581.32" y1="936.8" x2="-0.62" y2="23.38"/>
	<line class="st2" x1="1568.25" y1="944.35" x2="-13.7" y2="30.93"/>
	<line class="st2" x1="1555.18" y1="951.9" x2="-26.77" y2="38.48"/>
	<line class="st2" x1="1542.1" y1="959.45" x2="-39.85" y2="46.03"/>
	<line class="st2" x1="1529.03" y1="967" x2="-52.92" y2="53.58"/>
	<line class="st2" x1="1515.95" y1="974.54" x2="-65.99" y2="61.13"/>
	<line class="st2" x1="1502.88" y1="982.09" x2="-79.07" y2="68.68"/>
	<line class="st2" x1="1489.81" y1="989.64" x2="-92.14" y2="76.23"/>
	<line class="st2" x1="1476.73" y1="997.19" x2="-105.22" y2="83.77"/>
	<line class="st2" x1="1463.66" y1="1004.74" x2="-118.29" y2="91.32"/>
	<line class="st2" x1="1450.58" y1="1012.29" x2="-131.36" y2="98.87"/>
	<line class="st2" x1="1437.51" y1="1019.84" x2="-144.44" y2="106.42"/>
	<line class="st2" x1="1424.44" y1="1027.39" x2="-157.51" y2="113.97"/>
	<line class="st2" x1="1411.36" y1="1034.94" x2="-170.58" y2="121.52"/>
	<line class="st2" x1="1398.29" y1="1042.48" x2="-183.66" y2="129.07"/>
	<line class="st2" x1="1385.22" y1="1050.03" x2="-196.73" y2="136.62"/>
	<line class="st2" x1="1372.14" y1="1057.58" x2="-209.81" y2="144.17"/>
	<line class="st2" x1="1359.07" y1="1065.13" x2="-222.88" y2="151.71"/>
	<line class="st2" x1="1345.99" y1="1072.68" x2="-235.95" y2="159.26"/>
	<line class="st2" x1="1332.92" y1="1080.23" x2="-249.03" y2="166.81"/>
	<line class="st2" x1="1319.85" y1="1087.78" x2="-262.1" y2="174.36"/>
	<line class="st2" x1="1306.77" y1="1095.33" x2="-275.18" y2="181.91"/>
	<line class="st2" x1="1293.7" y1="1102.88" x2="-288.25" y2="189.46"/>
	<line class="st2" x1="1280.62" y1="1110.43" x2="-301.32" y2="197.01"/>
	<line class="st2" x1="1267.55" y1="1117.97" x2="-314.4" y2="204.56"/>
	<line class="st2" x1="1254.48" y1="1125.52" x2="-327.47" y2="212.11"/>
	<line class="st2" x1="1241.4" y1="1133.07" x2="-340.55" y2="219.66"/>
	<line class="st2" x1="1228.33" y1="1140.62" x2="-353.62" y2="227.2"/>
	<line class="st2" x1="1215.25" y1="1148.17" x2="-366.69" y2="234.75"/>
	<line class="st2" x1="1202.18" y1="1155.72" x2="-379.77" y2="242.3"/>
	<line class="st2" x1="1189.11" y1="1163.27" x2="-392.84" y2="249.85"/>
	<line class="st2" x1="1176.03" y1="1170.82" x2="-405.92" y2="257.4"/>
	<line class="st2" x1="1162.96" y1="1178.37" x2="-418.99" y2="264.95"/>
	<line class="st2" x1="1149.88" y1="1185.91" x2="-432.06" y2="272.5"/>
	<line class="st2" x1="1136.81" y1="1193.46" x2="-445.14" y2="280.05"/>
	<line class="st2" x1="1123.74" y1="1201.01" x2="-458.21" y2="287.6"/>
	<line class="st2" x1="1110.66" y1="1208.56" x2="-471.29" y2="295.14"/>
	<line class="st2" x1="1097.59" y1="1216.11" x2="-484.36" y2="302.69"/>
	<line class="st2" x1="1084.51" y1="1223.66" x2="-497.43" y2="310.24"/>
	<line class="st2" x1="1071.44" y1="1231.21" x2="-510.51" y2="317.79"/>
	<line class="st2" x1="1058.37" y1="1238.76" x2="-523.58" y2="325.34"/>
	<line class="st2" x1="1045.29" y1="1246.31" x2="-536.66" y2="332.89"/>
	<line class="st2" x1="1032.22" y1="1253.85" x2="-549.73" y2="340.44"/>
	<line class="st2" x1="1019.14" y1="1261.4" x2="-562.8" y2="347.99"/>
	<line class="st2" x1="1006.07" y1="1268.95" x2="-575.88" y2="355.54"/>
	<line class="st2" x1="993" y1="1276.5" x2="-588.95" y2="363.08"/>
	<line class="st2" x1="979.92" y1="1284.05" x2="-602.03" y2="370.63"/>
	<line class="st2" x1="966.85" y1="1291.6" x2="-615.1" y2="378.18"/>
	<line class="st2" x1="953.77" y1="1299.15" x2="-628.17" y2="385.73"/>
	<line class="st2" x1="940.7" y1="1306.7" x2="-641.25" y2="393.28"/>
	<line class="st2" x1="927.63" y1="1314.25" x2="-654.32" y2="400.83"/>
	<line class="st2" x1="914.55" y1="1321.79" x2="-667.39" y2="408.38"/>
	<line class="st2" x1="901.48" y1="1329.34" x2="-680.47" y2="415.93"/>
	<line class="st2" x1="888.41" y1="1336.89" x2="-693.54" y2="423.48"/>
	<line class="st2" x1="875.33" y1="1344.44" x2="-706.62" y2="431.02"/>
	<line class="st2" x1="862.26" y1="1351.99" x2="-719.69" y2="438.57"/>
	<line class="st2" x1="849.18" y1="1359.54" x2="-732.76" y2="446.12"/>
	<line class="st2" x1="836.11" y1="1367.09" x2="-745.84" y2="453.67"/>
	<line class="st2" x1="823.04" y1="1374.64" x2="-758.91" y2="461.22"/>
	<line class="st2" x1="809.96" y1="1382.19" x2="-771.99" y2="468.77"/>
	<line class="st2" x1="796.89" y1="1389.73" x2="-785.06" y2="476.32"/>
	<line class="st2" x1="783.81" y1="1397.28" x2="-798.13" y2="483.87"/>
	<line class="st2" x1="770.74" y1="1404.83" x2="-811.21" y2="491.42"/>
	<line class="st2" x1="757.67" y1="1412.38" x2="-824.28" y2="498.96"/>
	<line class="st2" x1="744.59" y1="1419.93" x2="-837.36" y2="506.51"/>
	<line class="st2" x1="731.52" y1="1427.48" x2="-850.43" y2="514.06"/>
	<line class="st2" x1="718.44" y1="1435.03" x2="-863.5" y2="521.61"/>
	<line class="st2" x1="705.37" y1="1442.58" x2="-876.58" y2="529.16"/>
	<line class="st2" x1="692.3" y1="1450.13" x2="-889.65" y2="536.71"/>
	<line class="st2" x1="679.22" y1="1457.67" x2="-902.73" y2="544.26"/>
	<line class="st2" x1="666.15" y1="1465.22" x2="-915.8" y2="551.81"/>
	<line class="st2" x1="653.07" y1="1472.77" x2="-928.87" y2="559.36"/>
</g>
<polygon class="st3" points="117.04,468.77 666.15,151.71 1215.25,468.77 666.15,785.82 "/>
<polygon class="st4" points="499.46,507.53 780.54,669.83 629.19,282.8 "/>
<polygon class="st6" points="537.6,303.64 877.53,499.91 694.49,31.88 "/>
<polygon class="st7" points="589.97,305.45 629.19,282.8 780.54,669.83 741.32,692.48 "/>
<line class="st4" x1="496.19" y1="189.46" x2="535.41" y2="166.81"/>
<polygon class="st8" points="694.49,31.88 733.71,9.23 576.82,280.99 537.6,303.64 "/>
<polygon class="st8" points="916.75,477.26 576.82,280.99 537.6,303.64 877.53,499.91 "/>
<polygon class="st9" points="694.49,31.88 733.71,9.23 916.75,477.26 877.53,499.91 "/>
<polygon class="st10" points="951.35,543.31 667.42,379.37 800.77,147 "/>
<polygon class="st11" points="800.77,147 838.3,126.24 990.8,520.02 951.35,543.31 "/>
<polygon class="st12" points="117.04,468.77 117.04,506.51 117.04,525.39 130.12,548.03 149.73,566.9 156.26,582 162.8,593.33 
	175.87,589.55 188.95,608.42 195.49,627.3 195.49,642.39 202.02,657.49 228.17,657.49 234.71,683.91 241.24,700.9 241.24,721.66 
	247.78,744.3 260.86,732.98 273.93,744.3 280.47,763.18 287,797.15 293.54,812.24 313.15,823.57 326.23,827.34 352.37,838.66 
	358.91,857.54 378.52,872.63 385.06,899.06 411.21,895.28 437.35,887.73 456.96,921.7 456.96,944.35 469.11,978.32 496.19,997.19 
	528.87,1008.51 555.02,997.19 568.09,1004.74 587.7,1019.84 600.78,1042.48 613.85,1065.52 626.93,1080.23 646.54,1091.55 
	653.07,1117.97 666.15,1133.07 666.15,785.82 "/>
<polygon class="st13" points="1215.25,468.77 1215.25,506.51 1215.25,525.39 1202.18,548.03 1182.57,566.9 1176.03,582 
	1169.49,593.33 1156.42,589.55 1143.35,608.42 1136.81,627.3 1136.81,642.39 1130.27,657.49 1104.13,657.49 1097.59,683.91 
	1091.05,700.9 1091.05,721.66 1084.51,744.3 1071.44,732.98 1058.37,744.3 1051.83,763.18 1045.29,797.15 1038.76,812.24 
	1019.14,823.57 1006.07,827.34 979.92,838.66 973.39,857.54 953.77,872.63 947.24,899.06 921.09,895.28 894.94,887.73 875.33,921.7 
	875.33,944.35 863.18,978.32 836.11,997.19 803.42,1008.51 777.28,997.19 764.2,1004.74 744.59,1019.84 731.52,1042.48 
	718.44,1065.52 705.37,1080.23 685.76,1091.55 679.22,1117.97 666.15,1133.07 666.15,785.82 "/>
<polygon class="st17" points="285.39,373.46 398.13,438.55 398.13,264.97 388.74,270.39 388.74,281.24 379.34,292.09 369.95,286.67 
	348.43,297.51 343.51,312.01 336.96,331.68 319.25,330.06 313.58,335.49 309.2,346.34 301.22,351.76 293.02,343.15 285.39,357.19 
	"/>
<polygon class="st15" points="398.13,438.55 510.87,373.46 510.87,351.76 501.48,346.34 495.58,338.89 486.47,335.49 473.29,338.56 
	458.27,326.43 451.06,308.36 440.9,315.28 429.75,308.36 426.32,299.22 420.33,295.55 413.51,295.55 405.16,278.23 398.13,264.97 
	"/>
<polygon class="st14" points="398.13,317.58 388.74,324.64 379.34,332.66 369.95,330.06 357.61,330.06 349.02,337.52 336.3,354.3 
	322.97,351.76 309.2,346.34 301.22,351.76 293.02,343.15 285.39,357.19 285.39,373.46 398.13,438.55 "/>
<path class="st16" d="M398.13,317.58l7.68,15.08l5.57,10.82l5.54,1.31l7.05,4.59l5.78,14.75l7.87,6.23l7.49-7.76l7.59,5.42
	c0,0,3.93,5.24,4.92,5.42c0.98,0.19,15.67,0,15.67,0l12.2-2.76l5.25,5.57v8.82l-92.6,53.47V317.58z"/>
<polygon class="st16" points="398.13,317.58 401.73,324.64 407.53,327.09 416.92,327.09 426.32,327.09 435.71,330.06 440.73,335.49 
	448.11,335.49 457.45,335.49 467.15,333.61 473.29,338.56 486.47,335.49 495.58,338.89 501.48,346.34 510.87,351.76 510.87,373.46 
	454.5,406.01 420.33,373.46 398.13,357.19 "/>
<path class="st18" d="M552.61,665.41c-4.1-2.52-11.38-6.27-12.52-7.36l-43.9-45.85c0,0-14.59-17.68-26.15-22.65
	c-9.83-4.22-59.5-0.75-65.37,0c-4.9,0.63-33.52,13.36-42.83,17.55c-1.9,0.85-4.51,0.41-4.51,0.41l-122.62-70.8l91.52-30.2
	c0,0,79.63-3.77,98.05,0c17.63,3.61,45.76,22.65,45.76,22.65s65.37,45.29,91.52,52.84c25.74,7.43,65.37-7.55,65.37-7.55
	s68.49-10.22,91.52-11.32c17.98-0.86,62.59,1.73,71.91,3.77c8.35,1.83,38.42,18.06,52.3,18.87c19.94,1.17,78.44-15.1,78.44-15.1
	s59.11-11.33,78.44-7.55c14.38,2.81,26.15,15.1,26.15,15.1l-91.52,52.84c0,0-59.1-3.35-78.44,0c-14.64,2.53-40.56,15.16-54.95,18.87
	c-21.53,5.56-88.86,3.77-88.86,3.77l-39.22-3.77h-13.07l-39.22,7.55l-30.84,10.27c-2.07,0.97-10.18,3.38-20.19,2.99l-11.46-2.95
	C556.78,667.61,553.57,666.01,552.61,665.41"/>
<g>
	<polygon points="561.56,407.59 558.59,406.1 558.59,385.6 561.56,384.28 564.44,385.54 564.44,406.3 	"/>
	<g>
		<polygon class="st14" points="561.56,395.39 548.85,388.06 561.56,365.2 		"/>
		<polyline class="st16" points="561.56,365.41 561.56,395.6 574.26,388.27 		"/>
		<polygon class="st14" points="561.56,384.07 548.85,376.73 561.56,353.87 		"/>
		<polyline class="st16" points="561.56,354.09 561.56,384.28 574.26,376.94 		"/>
		<polygon class="st14" points="561.56,371.42 548.85,364.08 561.56,341.23 		"/>
		<polyline class="st16" points="561.56,341.44 561.56,371.63 574.26,364.29 		"/>
	</g>
</g>
<g>
	<polygon points="1059.57,516.87 1057.68,515.93 1057.68,502.89 1059.57,502.05 1061.4,502.86 1061.4,516.06 	"/>
	<g>
		<polygon class="st14" points="1059.57,509.12 1051.49,504.45 1059.57,489.92 		"/>
		<polyline class="st16" points="1059.57,490.06 1059.57,509.25 1067.65,504.59 		"/>
		<polygon class="st14" points="1059.57,501.92 1051.49,497.25 1059.57,482.72 		"/>
		<polyline class="st16" points="1059.57,482.86 1059.57,502.05 1067.65,497.39 		"/>
		<polygon class="st14" points="1059.57,493.88 1051.49,489.21 1059.57,474.68 		"/>
		<polyline class="st16" points="1059.57,474.81 1059.57,494.01 1067.65,489.35 		"/>
	</g>
</g>
<g>
	<polygon points="842.65,560.68 839.68,559.2 839.68,538.69 842.65,537.37 845.53,538.63 845.53,559.4 	"/>
	<g>
		<polygon class="st14" points="842.65,548.48 829.94,541.15 842.65,518.29 		"/>
		<polyline class="st16" points="842.65,518.5 842.65,548.7 855.35,541.36 		"/>
		<polygon class="st14" points="842.65,537.16 829.94,529.82 842.65,506.97 		"/>
		<polyline class="st16" points="842.65,507.18 842.65,537.37 855.35,530.04 		"/>
		<polygon class="st14" points="842.65,524.51 829.94,517.17 842.65,494.32 		"/>
		<polyline class="st16" points="842.65,494.53 842.65,524.72 855.35,517.39 		"/>
	</g>
</g>
<g>
	<polygon points="274.11,511.61 272.63,510.87 272.63,500.62 274.11,499.96 275.55,500.59 275.55,510.97 	"/>
	<g>
		<polygon class="st14" points="274.11,505.51 267.76,501.85 274.11,490.42 		"/>
		<polyline class="st16" points="274.11,490.52 274.11,505.62 280.47,501.95 		"/>
		<polygon class="st14" points="274.11,499.85 267.76,496.18 274.11,484.76 		"/>
		<polyline class="st16" points="274.11,484.86 274.11,499.96 280.47,496.29 		"/>
		<polygon class="st14" points="274.11,493.53 267.76,489.86 274.11,478.43 		"/>
		<polyline class="st16" points="274.11,478.54 274.11,493.63 280.47,489.97 		"/>
	</g>
</g>
<g>
	<polygon points="282.41,479.92 280.47,478.95 280.47,465.57 282.41,464.7 284.3,465.53 284.3,479.08 	"/>
	<g>
		<polygon class="st14" points="282.41,471.96 274.11,467.17 282.41,452.24 		"/>
		<polyline class="st16" points="282.41,452.38 282.41,472.1 290.71,467.31 		"/>
		<polygon class="st14" points="282.41,464.56 274.11,459.77 282.41,444.85 		"/>
		<polyline class="st16" points="282.41,444.98 282.41,464.7 290.71,459.91 		"/>
		<polygon class="st14" points="282.41,456.3 274.11,451.51 282.41,436.59 		"/>
		<polyline class="st16" points="282.41,436.72 282.41,456.44 290.71,451.65 		"/>
	</g>
</g>
<g>
	<polygon points="452.65,486.85 450.11,485.58 450.11,468.07 452.65,466.94 455.11,468.02 455.11,485.75 	"/>
	<g>
		<polygon class="st14" points="452.65,476.44 441.79,470.17 452.65,450.65 		"/>
		<polyline class="st16" points="452.65,450.83 452.65,476.62 463.5,470.35 		"/>
		<polygon class="st14" points="452.65,466.76 441.79,460.5 452.65,440.97 		"/>
		<polyline class="st16" points="452.65,441.15 452.65,466.94 463.5,460.68 		"/>
		<polygon class="st14" points="452.65,455.96 441.79,449.69 452.65,430.17 		"/>
		<polyline class="st16" points="452.65,430.35 452.65,456.14 463.5,449.87 		"/>
	</g>
</g>
<g>
	<polygon points="247.78,487.64 244.82,486.16 244.82,465.65 247.78,464.33 250.67,465.59 250.67,486.36 	"/>
	<g>
		<polygon class="st14" points="247.78,475.44 235.07,468.11 247.78,445.25 		"/>
		<polyline class="st16" points="247.78,445.46 247.78,475.66 260.49,468.32 		"/>
		<polygon class="st14" points="247.78,464.12 235.07,456.78 247.78,433.93 		"/>
		<polyline class="st16" points="247.78,434.14 247.78,464.33 260.49,457 		"/>
		<polygon class="st14" points="247.78,451.47 235.07,444.14 247.78,421.28 		"/>
		<polyline class="st16" points="247.78,421.49 247.78,451.68 260.49,444.35 		"/>
	</g>
</g>
<polygon points="502.72,467.98 499.76,466.5 499.76,445.99 502.72,444.67 505.61,445.93 505.61,466.69 "/>
<g>
	<polygon class="st14" points="502.72,455.78 490.02,448.45 502.72,425.59 	"/>
	<polyline class="st16" points="502.72,425.8 502.72,456 515.43,448.66 	"/>
	<polygon class="st14" points="502.72,444.46 490.02,437.12 502.72,414.27 	"/>
	<polyline class="st16" points="502.72,414.48 502.72,444.67 515.43,437.33 	"/>
	<polygon class="st14" points="502.72,431.81 490.02,424.47 502.72,401.62 	"/>
	<polyline class="st16" points="502.72,401.83 502.72,432.02 515.43,424.69 	"/>
</g>
<g>
	<polygon points="805.64,539.7 803.81,538.78 803.81,526.14 805.64,525.32 807.42,526.1 807.42,538.9 	"/>
	<g>
		<polygon class="st14" points="805.64,532.17 797.8,527.65 805.64,513.55 		"/>
		<polyline class="st16" points="805.64,513.68 805.64,532.3 813.48,527.78 		"/>
		<polygon class="st14" points="805.64,525.19 797.8,520.67 805.64,506.57 		"/>
		<polyline class="st16" points="805.64,506.7 805.64,525.32 813.48,520.8 		"/>
		<polygon class="st14" points="805.64,517.39 797.8,512.86 805.64,498.77 		"/>
		<polyline class="st16" points="805.64,498.9 805.64,517.52 813.48,512.99 		"/>
	</g>
</g>
<polygon points="1084.51,490.63 1081.55,489.14 1081.55,468.64 1084.51,467.32 1087.4,468.58 1087.4,489.34 "/>
<g>
	<polygon class="st14" points="1084.51,478.43 1071.81,471.09 1084.51,448.24 	"/>
	<polyline class="st16" points="1084.51,448.45 1084.51,478.64 1097.22,471.3 	"/>
	<polygon class="st14" points="1084.51,467.11 1071.81,459.77 1084.51,436.91 	"/>
	<polyline class="st16" points="1084.51,437.12 1084.51,467.32 1097.22,459.98 	"/>
	<polygon class="st14" points="1084.51,454.46 1071.81,447.12 1084.51,424.26 	"/>
	<polyline class="st16" points="1084.51,424.47 1084.51,454.67 1097.22,447.33 	"/>
</g>
<linearGradient id="SVGID_1_" gradientUnits="userSpaceOnUse" x1="692.5851" y1="467.2167" x2="787.8915" y2="310.5672">
	<stop  offset="0" style="stop-color:#333333;stop-opacity:0"/>
	<stop  offset="0.8425" style="stop-color:#333333;stop-opacity:0.8221"/>
</linearGradient>
<polygon class="st19" points="951.35,543.31 537.6,303.64 459.27,349.29 871.58,587.38 "/>
<linearGradient id="SVGID_00000104696177059588324180000007323755186667249820_" gradientUnits="userSpaceOnUse" x1="290.9394" y1="448.0472" x2="378.4802" y2="304.1614">
	<stop  offset="0" style="stop-color:#333333;stop-opacity:0"/>
	<stop  offset="0.7899" style="stop-color:#333333"/>
</linearGradient>
<polygon style="fill:url(#SVGID_00000104696177059588324180000007323755186667249820_);" points="398.13,438.55 285.45,373.47 
	207.12,419.11 318.66,483.87 "/>
<linearGradient id="SVGID_00000013876253566234893280000006637352892015668407_" gradientUnits="userSpaceOnUse" x1="232.6487" y1="498.8282" x2="260.1089" y2="453.6933">
	<stop  offset="0" style="stop-color:#333333;stop-opacity:0"/>
	<stop  offset="0.7899" style="stop-color:#333333"/>
</linearGradient>
<polygon style="fill:url(#SVGID_00000013876253566234893280000006637352892015668407_);" points="250.67,486.36 247.63,484.59 
	221.96,499.25 221.96,499.25 "/>
<linearGradient id="SVGID_00000029009457996339712900000004833597533554310024_" gradientUnits="userSpaceOnUse" x1="266.884" y1="491.7478" x2="294.2716" y2="446.7324">
	<stop  offset="0" style="stop-color:#333333;stop-opacity:0"/>
	<stop  offset="0.7899" style="stop-color:#333333"/>
</linearGradient>
<polygon style="fill:url(#SVGID_00000029009457996339712900000004833597533554310024_);" points="284.3,479.08 282.4,477.82 
	256.73,492.48 256.73,492.48 "/>
<linearGradient id="SVGID_00000115511721643643123540000016893148487027992964_" gradientUnits="userSpaceOnUse" x1="258.3485" y1="523.7314" x2="285.7361" y2="478.7159">
	<stop  offset="0" style="stop-color:#333333;stop-opacity:0"/>
	<stop  offset="0.7899" style="stop-color:#333333"/>
</linearGradient>
<polygon style="fill:url(#SVGID_00000115511721643643123540000016893148487027992964_);" points="275.55,510.97 274.06,509.92 
	248.39,524.58 249.74,523.81 "/>
<linearGradient id="SVGID_00000081649990428430418300000002645930429105346991_" gradientUnits="userSpaceOnUse" x1="437.094" y1="498.3253" x2="464.5543" y2="453.1905">
	<stop  offset="0" style="stop-color:#333333;stop-opacity:0"/>
	<stop  offset="0.7899" style="stop-color:#333333"/>
</linearGradient>
<polyline style="fill:url(#SVGID_00000081649990428430418300000002645930429105346991_);" points="455.11,485.85 452.08,484.09 
	426.41,498.75 "/>
<linearGradient id="SVGID_00000078735289149719352100000011451858604303835520_" gradientUnits="userSpaceOnUse" x1="485.3571" y1="480.3512" x2="512.8173" y2="435.2163">
	<stop  offset="0" style="stop-color:#333333;stop-opacity:0"/>
	<stop  offset="0.7899" style="stop-color:#333333"/>
</linearGradient>
<polyline style="fill:url(#SVGID_00000078735289149719352100000011451858604303835520_);" points="503.37,467.88 500.34,466.11 
	474.67,480.77 "/>
<linearGradient id="SVGID_00000017506391360159317990000006192579834905541052_" gradientUnits="userSpaceOnUse" x1="546.4234" y1="418.4958" x2="573.8837" y2="373.3609">
	<stop  offset="0" style="stop-color:#333333;stop-opacity:0"/>
	<stop  offset="0.7899" style="stop-color:#333333"/>
</linearGradient>
<polyline style="fill:url(#SVGID_00000017506391360159317990000006192579834905541052_);" points="564.44,406.02 561.41,404.26 
	535.74,418.92 "/>
<linearGradient id="SVGID_00000098902534269010793310000001935126035514924182_" gradientUnits="userSpaceOnUse" x1="827.5133" y1="571.811" x2="854.9736" y2="526.6761">
	<stop  offset="0" style="stop-color:#333333;stop-opacity:0"/>
	<stop  offset="0.7899" style="stop-color:#333333"/>
</linearGradient>
<polyline style="fill:url(#SVGID_00000098902534269010793310000001935126035514924182_);" points="845.53,559.34 842.5,557.57 
	816.83,572.23 "/>
<linearGradient id="SVGID_00000060744373395764724270000015297860906951697816_" gradientUnits="userSpaceOnUse" x1="1068.1398" y1="502.0998" x2="1095.6001" y2="456.9649">
	<stop  offset="0" style="stop-color:#333333;stop-opacity:0"/>
	<stop  offset="0.7899" style="stop-color:#333333"/>
</linearGradient>
<polyline style="fill:url(#SVGID_00000060744373395764724270000015297860906951697816_);" points="1086.16,489.63 1083.12,487.86 
	1057.46,502.52 "/>
<linearGradient id="SVGID_00000156581698560037951610000012094610283438891429_" gradientUnits="userSpaceOnUse" x1="789.9642" y1="551.603" x2="817.3519" y2="506.5876">
	<stop  offset="0" style="stop-color:#333333;stop-opacity:0"/>
	<stop  offset="0.7899" style="stop-color:#333333"/>
</linearGradient>
<polygon style="fill:url(#SVGID_00000156581698560037951610000012094610283438891429_);" points="807.17,538.84 805.67,537.79 
	780.01,552.45 781.36,551.68 "/>
<linearGradient id="SVGID_00000155145654291118919360000008445619828290606001_" gradientUnits="userSpaceOnUse" x1="1044.9" y1="527.9188" x2="1071.1958" y2="484.6978">
	<stop  offset="0" style="stop-color:#333333;stop-opacity:0"/>
	<stop  offset="0.7899" style="stop-color:#333333"/>
</linearGradient>
<polygon style="fill:url(#SVGID_00000155145654291118919360000008445619828290606001_);" points="1061.4,516.04 1059.93,514.62 
	1035.32,528.43 1035.59,528.88 "/>
<line class="st31" x1="241.24" y1="540.48" x2="241.24" y2="534.82"/>
<polyline class="st32" points="120.31,470.66 130.12,487.64 149.73,506.51 156.26,521.61 162.8,532.93 175.87,529.16 188.95,548.03 
	195.49,566.9 195.49,582 202.02,597.1 228.17,597.1 234.71,623.52 241.24,640.51 241.24,661.27 247.78,683.91 260.86,672.59 
	273.93,683.91 280.47,702.78 287,736.75 293.54,751.85 313.15,763.18 326.23,766.95 352.37,778.27 358.91,797.15 378.52,812.24 
	385.06,838.66 411.21,834.89 437.35,827.34 456.96,861.31 456.96,883.96 469.11,917.93 496.19,936.8 528.87,948.12 555.02,936.8 
	568.09,944.35 587.7,959.45 600.78,982.09 613.85,1005.13 626.93,1019.84 646.54,1031.16 653.07,1057.58 666.15,1072.68 
	666.15,785.82 "/>
<polyline class="st33" points="666.15,785.82 666.15,967 653.07,951.9 646.54,925.48 626.93,914.15 613.85,899.44 600.78,876.41 
	587.7,853.76 568.09,838.66 555.02,831.12 528.87,842.44 496.19,831.12 469.11,812.24 456.96,778.27 456.96,755.63 437.35,721.66 
	411.21,729.21 385.06,732.98 378.52,706.56 358.91,691.46 352.37,672.59 326.23,661.27 313.15,657.49 293.54,646.17 287,631.07 
	280.47,597.1 273.93,578.23 260.86,566.9 247.78,578.23 241.24,555.58 241.24,540.48 "/>
<polyline class="st18" points="357.33,607.51 352.37,610.11 345.84,610.11 336.74,610.11 315,606.2 297.41,600.87 284.95,593.33 
	277.85,589.55 267.39,583.97 258.56,577.13 248.39,566.9 237.8,555.58 234.71,540.48 234.71,536.71 "/>
</svg>
