<?xml version="1.0" encoding="utf-8"?>
<!-- Generator: Adobe Illustrator 25.4.1, SVG Export Plug-In . SVG Version: 6.00 Build 0)  -->
<svg version="1.1" id="Layer_1" xmlns="http://www.w3.org/2000/svg" xmlns:xlink="http://www.w3.org/1999/xlink" x="0px" y="0px"
	 viewBox="0 0 1280 1141.01" style="enable-background:new 0 0 1280 1141.01;" xml:space="preserve">
<style type="text/css">
	.st0{display:none;fill:#333333;stroke:#333333;stroke-miterlimit:10;}
	.st1{display:none;}
	.st2{display:inline;fill:none;stroke:#000000;stroke-width:0.25;stroke-miterlimit:10;}
	.st3{opacity:0.55;fill:#B3B3B3;}
	.st4{display:none;fill:#FDC830;stroke:#000000;stroke-linecap:round;stroke-miterlimit:10;}
	.st5{display:none;fill:none;stroke:#FDC830;stroke-width:13;stroke-linecap:round;stroke-linejoin:round;stroke-miterlimit:10;}
	.st6{fill:#EA580C;stroke:#EA580C;stroke-miterlimit:10;}
	.st7{display:none;fill:#FDE5A7;}
	.st8{fill:#EA580C;}
	.st9{fill:#B04209;stroke:#B04209;stroke-miterlimit:10;}
	.st10{fill:#FBBF24;}
	.st11{fill:#BC8F1B;}
	.st12{opacity:0.1;fill:#999999;}
	.st13{opacity:0.29;fill:#A5A9AF;}
	.st14{fill:#999999;}
	.st15{opacity:0.55;fill:#333333;}
	.st16{fill:#333333;}
	.st17{opacity:0.44;fill:#999999;}
	.st18{fill:#ADADAD;}
	.st19{fill:url(#SVGID_1_);}
	.st20{fill:url(#SVGID_00000136388676977552903890000001709595374357019565_);}
	.st21{fill:url(#SVGID_00000017491163543006113050000002664033521916978853_);}
	.st22{fill:url(#SVGID_00000078011553871104139280000015042070931841356443_);}
	.st23{fill:url(#SVGID_00000139255281207290770790000010227256231464524956_);}
	.st24{fill:url(#SVGID_00000063594912398439912550000007984122747894819740_);}
	.st25{fill:url(#SVGID_00000170274434129246352170000005428866638226788768_);}
	.st26{fill:url(#SVGID_00000059995940699242092880000000127182113054212793_);}
	.st27{fill:url(#SVGID_00000076578551473431343670000013195940597592956585_);}
	.st28{fill:url(#SVGID_00000124869477053707610810000013119900083479188622_);}
	.st29{fill:url(#SVGID_00000065037168367587326460000005349688589402277565_);}
	.st30{fill:url(#SVGID_00000129927844183569382180000009886875852428163241_);}
	.st31{opacity:0.65;fill:#F2F2F2;}
	.st32{opacity:0.1;fill:#CCCCCC;}
	.st33{opacity:0.1;fill:#F2F2F2;}
	.st34{fill:none;stroke:#000000;stroke-miterlimit:10;}
</style>
<rect y="0.74" class="st0" width="1280.62" height="1140.27"/>
<g class="st1">
	<polygon class="st2" points="640,1480.32 2221.95,566.9 640,-346.51 -941.95,566.9 	"/>
	<line class="st2" x1="-928.87" y1="574.45" x2="653.07" y2="-338.96"/>
	<line class="st2" x1="-915.8" y1="582" x2="666.15" y2="-331.41"/>
	<line class="st2" x1="-902.73" y1="589.55" x2="679.22" y2="-323.87"/>
	<line class="st2" x1="-889.65" y1="597.1" x2="692.3" y2="-316.32"/>
	<line class="st2" x1="-876.58" y1="604.65" x2="705.37" y2="-308.77"/>
	<line class="st2" x1="-863.5" y1="612.2" x2="718.44" y2="-301.22"/>
	<line class="st2" x1="-850.43" y1="619.75" x2="731.52" y2="-293.67"/>
	<line class="st2" x1="-837.36" y1="627.3" x2="744.59" y2="-286.12"/>
	<line class="st2" x1="-824.28" y1="634.84" x2="757.67" y2="-278.57"/>
	<line class="st2" x1="-811.21" y1="642.39" x2="770.74" y2="-271.02"/>
	<line class="st2" x1="-798.13" y1="649.94" x2="783.81" y2="-263.47"/>
	<line class="st2" x1="-785.06" y1="657.49" x2="796.89" y2="-255.93"/>
	<line class="st2" x1="-771.99" y1="665.04" x2="809.96" y2="-248.38"/>
	<line class="st2" x1="-758.91" y1="672.59" x2="823.04" y2="-240.83"/>
	<line class="st2" x1="-745.84" y1="680.14" x2="836.11" y2="-233.28"/>
	<line class="st2" x1="-732.76" y1="687.69" x2="849.18" y2="-225.73"/>
	<line class="st2" x1="-719.69" y1="695.24" x2="862.26" y2="-218.18"/>
	<line class="st2" x1="-706.62" y1="702.78" x2="875.33" y2="-210.63"/>
	<line class="st2" x1="-693.54" y1="710.33" x2="888.41" y2="-203.08"/>
	<line class="st2" x1="-680.47" y1="717.88" x2="901.48" y2="-195.53"/>
	<line class="st2" x1="-667.39" y1="725.43" x2="914.55" y2="-187.99"/>
	<line class="st2" x1="-654.32" y1="732.98" x2="927.63" y2="-180.44"/>
	<line class="st2" x1="-641.25" y1="740.53" x2="940.7" y2="-172.89"/>
	<line class="st2" x1="-628.17" y1="748.08" x2="953.77" y2="-165.34"/>
	<line class="st2" x1="-615.1" y1="755.63" x2="966.85" y2="-157.79"/>
	<line class="st2" x1="-602.03" y1="763.18" x2="979.92" y2="-150.24"/>
	<line class="st2" x1="-588.95" y1="770.72" x2="993" y2="-142.69"/>
	<line class="st2" x1="-575.88" y1="778.27" x2="1006.07" y2="-135.14"/>
	<line class="st2" x1="-562.8" y1="785.82" x2="1019.14" y2="-127.59"/>
	<line class="st2" x1="-549.73" y1="793.37" x2="1032.22" y2="-120.05"/>
	<line class="st2" x1="-536.66" y1="800.92" x2="1045.29" y2="-112.5"/>
	<line class="st2" x1="-523.58" y1="808.47" x2="1058.37" y2="-104.95"/>
	<line class="st2" x1="-510.51" y1="816.02" x2="1071.44" y2="-97.4"/>
	<line class="st2" x1="-497.43" y1="823.57" x2="1084.51" y2="-89.85"/>
	<line class="st2" x1="-484.36" y1="831.12" x2="1097.59" y2="-82.3"/>
	<line class="st2" x1="-471.29" y1="838.66" x2="1110.66" y2="-74.75"/>
	<line class="st2" x1="-458.21" y1="846.21" x2="1123.74" y2="-67.2"/>
	<line class="st2" x1="-445.14" y1="853.76" x2="1136.81" y2="-59.65"/>
	<line class="st2" x1="-432.06" y1="861.31" x2="1149.88" y2="-52.11"/>
	<line class="st2" x1="-418.99" y1="868.86" x2="1162.96" y2="-44.56"/>
	<line class="st2" x1="-405.92" y1="876.41" x2="1176.03" y2="-37.01"/>
	<line class="st2" x1="-392.84" y1="883.96" x2="1189.11" y2="-29.46"/>
	<line class="st2" x1="-379.77" y1="891.51" x2="1202.18" y2="-21.91"/>
	<line class="st2" x1="-366.69" y1="899.06" x2="1215.25" y2="-14.36"/>
	<line class="st2" x1="-353.62" y1="906.6" x2="1228.33" y2="-6.81"/>
	<line class="st2" x1="-340.55" y1="914.15" x2="1241.4" y2="0.74"/>
	<line class="st2" x1="-327.47" y1="921.7" x2="1254.48" y2="8.29"/>
	<line class="st2" x1="-314.4" y1="929.25" x2="1267.55" y2="15.83"/>
	<line class="st2" x1="-301.32" y1="936.8" x2="1280.62" y2="23.38"/>
	<line class="st2" x1="-288.25" y1="944.35" x2="1293.7" y2="30.93"/>
	<line class="st2" x1="-275.18" y1="951.9" x2="1306.77" y2="38.48"/>
	<line class="st2" x1="-262.1" y1="959.45" x2="1319.85" y2="46.03"/>
	<line class="st2" x1="-249.03" y1="967" x2="1332.92" y2="53.58"/>
	<line class="st2" x1="-235.95" y1="974.54" x2="1345.99" y2="61.13"/>
	<line class="st2" x1="-222.88" y1="982.09" x2="1359.07" y2="68.68"/>
	<line class="st2" x1="-209.81" y1="989.64" x2="1372.14" y2="76.23"/>
	<line class="st2" x1="-196.73" y1="997.19" x2="1385.22" y2="83.77"/>
	<line class="st2" x1="-183.66" y1="1004.74" x2="1398.29" y2="91.32"/>
	<line class="st2" x1="-170.58" y1="1012.29" x2="1411.36" y2="98.87"/>
	<line class="st2" x1="-157.51" y1="1019.84" x2="1424.44" y2="106.42"/>
	<line class="st2" x1="-144.44" y1="1027.39" x2="1437.51" y2="113.97"/>
	<line class="st2" x1="-131.36" y1="1034.94" x2="1450.58" y2="121.52"/>
	<line class="st2" x1="-118.29" y1="1042.48" x2="1463.66" y2="129.07"/>
	<line class="st2" x1="-105.22" y1="1050.03" x2="1476.73" y2="136.62"/>
	<line class="st2" x1="-92.14" y1="1057.58" x2="1489.81" y2="144.17"/>
	<line class="st2" x1="-79.07" y1="1065.13" x2="1502.88" y2="151.71"/>
	<line class="st2" x1="-65.99" y1="1072.68" x2="1515.95" y2="159.26"/>
	<line class="st2" x1="-52.92" y1="1080.23" x2="1529.03" y2="166.81"/>
	<line class="st2" x1="-39.85" y1="1087.78" x2="1542.1" y2="174.36"/>
	<line class="st2" x1="-26.77" y1="1095.33" x2="1555.18" y2="181.91"/>
	<line class="st2" x1="-13.7" y1="1102.88" x2="1568.25" y2="189.46"/>
	<line class="st2" x1="-0.62" y1="1110.43" x2="1581.32" y2="197.01"/>
	<line class="st2" x1="12.45" y1="1117.97" x2="1594.4" y2="204.56"/>
	<line class="st2" x1="25.52" y1="1125.52" x2="1607.47" y2="212.11"/>
	<line class="st2" x1="38.6" y1="1133.07" x2="1620.55" y2="219.66"/>
	<line class="st2" x1="51.67" y1="1140.62" x2="1633.62" y2="227.2"/>
	<line class="st2" x1="64.75" y1="1148.17" x2="1646.69" y2="234.75"/>
	<line class="st2" x1="77.82" y1="1155.72" x2="1659.77" y2="242.3"/>
	<line class="st2" x1="90.89" y1="1163.27" x2="1672.84" y2="249.85"/>
	<line class="st2" x1="103.97" y1="1170.82" x2="1685.92" y2="257.4"/>
	<line class="st2" x1="117.04" y1="1178.37" x2="1698.99" y2="264.95"/>
	<line class="st2" x1="130.12" y1="1185.91" x2="1712.06" y2="272.5"/>
	<line class="st2" x1="143.19" y1="1193.46" x2="1725.14" y2="280.05"/>
	<line class="st2" x1="156.26" y1="1201.01" x2="1738.21" y2="287.6"/>
	<line class="st2" x1="169.34" y1="1208.56" x2="1751.29" y2="295.14"/>
	<line class="st2" x1="182.41" y1="1216.11" x2="1764.36" y2="302.69"/>
	<line class="st2" x1="195.49" y1="1223.66" x2="1777.43" y2="310.24"/>
	<line class="st2" x1="208.56" y1="1231.21" x2="1790.51" y2="317.79"/>
	<line class="st2" x1="221.63" y1="1238.76" x2="1803.58" y2="325.34"/>
	<line class="st2" x1="234.71" y1="1246.31" x2="1816.66" y2="332.89"/>
	<line class="st2" x1="247.78" y1="1253.85" x2="1829.73" y2="340.44"/>
	<line class="st2" x1="260.86" y1="1261.4" x2="1842.8" y2="347.99"/>
	<line class="st2" x1="273.93" y1="1268.95" x2="1855.88" y2="355.54"/>
	<line class="st2" x1="287" y1="1276.5" x2="1868.95" y2="363.08"/>
	<line class="st2" x1="300.08" y1="1284.05" x2="1882.03" y2="370.63"/>
	<line class="st2" x1="313.15" y1="1291.6" x2="1895.1" y2="378.18"/>
	<line class="st2" x1="326.23" y1="1299.15" x2="1908.17" y2="385.73"/>
	<line class="st2" x1="339.3" y1="1306.7" x2="1921.25" y2="393.28"/>
	<line class="st2" x1="352.37" y1="1314.25" x2="1934.32" y2="400.83"/>
	<line class="st2" x1="365.45" y1="1321.79" x2="1947.39" y2="408.38"/>
	<line class="st2" x1="378.52" y1="1329.34" x2="1960.47" y2="415.93"/>
	<line class="st2" x1="391.59" y1="1336.89" x2="1973.54" y2="423.48"/>
	<line class="st2" x1="404.67" y1="1344.44" x2="1986.62" y2="431.02"/>
	<line class="st2" x1="417.74" y1="1351.99" x2="1999.69" y2="438.57"/>
	<line class="st2" x1="430.82" y1="1359.54" x2="2012.76" y2="446.12"/>
	<line class="st2" x1="443.89" y1="1367.09" x2="2025.84" y2="453.67"/>
	<line class="st2" x1="456.96" y1="1374.64" x2="2038.91" y2="461.22"/>
	<line class="st2" x1="470.04" y1="1382.19" x2="2051.99" y2="468.77"/>
	<line class="st2" x1="483.11" y1="1389.73" x2="2065.06" y2="476.32"/>
	<line class="st2" x1="496.19" y1="1397.28" x2="2078.13" y2="483.87"/>
	<line class="st2" x1="509.26" y1="1404.83" x2="2091.21" y2="491.42"/>
	<line class="st2" x1="522.33" y1="1412.38" x2="2104.28" y2="498.96"/>
	<line class="st2" x1="535.41" y1="1419.93" x2="2117.36" y2="506.51"/>
	<line class="st2" x1="548.48" y1="1427.48" x2="2130.43" y2="514.06"/>
	<line class="st2" x1="561.56" y1="1435.03" x2="2143.5" y2="521.61"/>
	<line class="st2" x1="574.63" y1="1442.58" x2="2156.58" y2="529.16"/>
	<line class="st2" x1="587.7" y1="1450.13" x2="2169.65" y2="536.71"/>
	<line class="st2" x1="600.78" y1="1457.67" x2="2182.73" y2="544.26"/>
	<line class="st2" x1="613.85" y1="1465.22" x2="2195.8" y2="551.81"/>
	<line class="st2" x1="626.93" y1="1472.77" x2="2208.87" y2="559.36"/>
	<line class="st2" x1="2208.87" y1="574.45" x2="626.93" y2="-338.96"/>
	<line class="st2" x1="2195.8" y1="582" x2="613.85" y2="-331.41"/>
	<line class="st2" x1="2182.73" y1="589.55" x2="600.78" y2="-323.87"/>
	<line class="st2" x1="2169.65" y1="597.1" x2="587.7" y2="-316.32"/>
	<line class="st2" x1="2156.58" y1="604.65" x2="574.63" y2="-308.77"/>
	<line class="st2" x1="2143.5" y1="612.2" x2="561.56" y2="-301.22"/>
	<line class="st2" x1="2130.43" y1="619.75" x2="548.48" y2="-293.67"/>
	<line class="st2" x1="2117.36" y1="627.3" x2="535.41" y2="-286.12"/>
	<line class="st2" x1="2104.28" y1="634.84" x2="522.33" y2="-278.57"/>
	<line class="st2" x1="2091.21" y1="642.39" x2="509.26" y2="-271.02"/>
	<line class="st2" x1="2078.13" y1="649.94" x2="496.19" y2="-263.47"/>
	<line class="st2" x1="2065.06" y1="657.49" x2="483.11" y2="-255.93"/>
	<line class="st2" x1="2051.99" y1="665.04" x2="470.04" y2="-248.38"/>
	<line class="st2" x1="2038.91" y1="672.59" x2="456.96" y2="-240.83"/>
	<line class="st2" x1="2025.84" y1="680.14" x2="443.89" y2="-233.28"/>
	<line class="st2" x1="2012.76" y1="687.69" x2="430.82" y2="-225.73"/>
	<line class="st2" x1="1999.69" y1="695.24" x2="417.74" y2="-218.18"/>
	<line class="st2" x1="1986.62" y1="702.78" x2="404.67" y2="-210.63"/>
	<line class="st2" x1="1973.54" y1="710.33" x2="391.59" y2="-203.08"/>
	<line class="st2" x1="1960.47" y1="717.88" x2="378.52" y2="-195.53"/>
	<line class="st2" x1="1947.39" y1="725.43" x2="365.45" y2="-187.99"/>
	<line class="st2" x1="1934.32" y1="732.98" x2="352.37" y2="-180.44"/>
	<line class="st2" x1="1921.25" y1="740.53" x2="339.3" y2="-172.89"/>
	<line class="st2" x1="1908.17" y1="748.08" x2="326.23" y2="-165.34"/>
	<line class="st2" x1="1895.1" y1="755.63" x2="313.15" y2="-157.79"/>
	<line class="st2" x1="1882.03" y1="763.18" x2="300.08" y2="-150.24"/>
	<line class="st2" x1="1868.95" y1="770.72" x2="287" y2="-142.69"/>
	<line class="st2" x1="1855.88" y1="778.27" x2="273.93" y2="-135.14"/>
	<line class="st2" x1="1842.8" y1="785.82" x2="260.86" y2="-127.59"/>
	<line class="st2" x1="1829.73" y1="793.37" x2="247.78" y2="-120.05"/>
	<line class="st2" x1="1816.66" y1="800.92" x2="234.71" y2="-112.5"/>
	<line class="st2" x1="1803.58" y1="808.47" x2="221.63" y2="-104.95"/>
	<line class="st2" x1="1790.51" y1="816.02" x2="208.56" y2="-97.4"/>
	<line class="st2" x1="1777.43" y1="823.57" x2="195.49" y2="-89.85"/>
	<line class="st2" x1="1764.36" y1="831.12" x2="182.41" y2="-82.3"/>
	<line class="st2" x1="1751.29" y1="838.66" x2="169.34" y2="-74.75"/>
	<line class="st2" x1="1738.21" y1="846.21" x2="156.26" y2="-67.2"/>
	<line class="st2" x1="1725.14" y1="853.76" x2="143.19" y2="-59.65"/>
	<line class="st2" x1="1712.06" y1="861.31" x2="130.12" y2="-52.11"/>
	<line class="st2" x1="1698.99" y1="868.86" x2="117.04" y2="-44.56"/>
	<line class="st2" x1="1685.92" y1="876.41" x2="103.97" y2="-37.01"/>
	<line class="st2" x1="1672.84" y1="883.96" x2="90.89" y2="-29.46"/>
	<line class="st2" x1="1659.77" y1="891.51" x2="77.82" y2="-21.91"/>
	<line class="st2" x1="1646.69" y1="899.06" x2="64.75" y2="-14.36"/>
	<line class="st2" x1="1633.62" y1="906.6" x2="51.67" y2="-6.81"/>
	<line class="st2" x1="1620.55" y1="914.15" x2="38.6" y2="0.74"/>
	<line class="st2" x1="1607.47" y1="921.7" x2="25.52" y2="8.29"/>
	<line class="st2" x1="1594.4" y1="929.25" x2="12.45" y2="15.83"/>
	<line class="st2" x1="1581.32" y1="936.8" x2="-0.62" y2="23.38"/>
	<line class="st2" x1="1568.25" y1="944.35" x2="-13.7" y2="30.93"/>
	<line class="st2" x1="1555.18" y1="951.9" x2="-26.77" y2="38.48"/>
	<line class="st2" x1="1542.1" y1="959.45" x2="-39.85" y2="46.03"/>
	<line class="st2" x1="1529.03" y1="967" x2="-52.92" y2="53.58"/>
	<line class="st2" x1="1515.95" y1="974.54" x2="-65.99" y2="61.13"/>
	<line class="st2" x1="1502.88" y1="982.09" x2="-79.07" y2="68.68"/>
	<line class="st2" x1="1489.81" y1="989.64" x2="-92.14" y2="76.23"/>
	<line class="st2" x1="1476.73" y1="997.19" x2="-105.22" y2="83.77"/>
	<line class="st2" x1="1463.66" y1="1004.74" x2="-118.29" y2="91.32"/>
	<line class="st2" x1="1450.58" y1="1012.29" x2="-131.36" y2="98.87"/>
	<line class="st2" x1="1437.51" y1="1019.84" x2="-144.44" y2="106.42"/>
	<line class="st2" x1="1424.44" y1="1027.39" x2="-157.51" y2="113.97"/>
	<line class="st2" x1="1411.36" y1="1034.94" x2="-170.58" y2="121.52"/>
	<line class="st2" x1="1398.29" y1="1042.48" x2="-183.66" y2="129.07"/>
	<line class="st2" x1="1385.22" y1="1050.03" x2="-196.73" y2="136.62"/>
	<line class="st2" x1="1372.14" y1="1057.58" x2="-209.81" y2="144.17"/>
	<line class="st2" x1="1359.07" y1="1065.13" x2="-222.88" y2="151.71"/>
	<line class="st2" x1="1345.99" y1="1072.68" x2="-235.95" y2="159.26"/>
	<line class="st2" x1="1332.92" y1="1080.23" x2="-249.03" y2="166.81"/>
	<line class="st2" x1="1319.85" y1="1087.78" x2="-262.1" y2="174.36"/>
	<line class="st2" x1="1306.77" y1="1095.33" x2="-275.18" y2="181.91"/>
	<line class="st2" x1="1293.7" y1="1102.88" x2="-288.25" y2="189.46"/>
	<line class="st2" x1="1280.62" y1="1110.43" x2="-301.32" y2="197.01"/>
	<line class="st2" x1="1267.55" y1="1117.97" x2="-314.4" y2="204.56"/>
	<line class="st2" x1="1254.48" y1="1125.52" x2="-327.47" y2="212.11"/>
	<line class="st2" x1="1241.4" y1="1133.07" x2="-340.55" y2="219.66"/>
	<line class="st2" x1="1228.33" y1="1140.62" x2="-353.62" y2="227.2"/>
	<line class="st2" x1="1215.25" y1="1148.17" x2="-366.69" y2="234.75"/>
	<line class="st2" x1="1202.18" y1="1155.72" x2="-379.77" y2="242.3"/>
	<line class="st2" x1="1189.11" y1="1163.27" x2="-392.84" y2="249.85"/>
	<line class="st2" x1="1176.03" y1="1170.82" x2="-405.92" y2="257.4"/>
	<line class="st2" x1="1162.96" y1="1178.37" x2="-418.99" y2="264.95"/>
	<line class="st2" x1="1149.88" y1="1185.91" x2="-432.06" y2="272.5"/>
	<line class="st2" x1="1136.81" y1="1193.46" x2="-445.14" y2="280.05"/>
	<line class="st2" x1="1123.74" y1="1201.01" x2="-458.21" y2="287.6"/>
	<line class="st2" x1="1110.66" y1="1208.56" x2="-471.29" y2="295.14"/>
	<line class="st2" x1="1097.59" y1="1216.11" x2="-484.36" y2="302.69"/>
	<line class="st2" x1="1084.51" y1="1223.66" x2="-497.43" y2="310.24"/>
	<line class="st2" x1="1071.44" y1="1231.21" x2="-510.51" y2="317.79"/>
	<line class="st2" x1="1058.37" y1="1238.76" x2="-523.58" y2="325.34"/>
	<line class="st2" x1="1045.29" y1="1246.31" x2="-536.66" y2="332.89"/>
	<line class="st2" x1="1032.22" y1="1253.85" x2="-549.73" y2="340.44"/>
	<line class="st2" x1="1019.14" y1="1261.4" x2="-562.8" y2="347.99"/>
	<line class="st2" x1="1006.07" y1="1268.95" x2="-575.88" y2="355.54"/>
	<line class="st2" x1="993" y1="1276.5" x2="-588.95" y2="363.08"/>
	<line class="st2" x1="979.92" y1="1284.05" x2="-602.03" y2="370.63"/>
	<line class="st2" x1="966.85" y1="1291.6" x2="-615.1" y2="378.18"/>
	<line class="st2" x1="953.77" y1="1299.15" x2="-628.17" y2="385.73"/>
	<line class="st2" x1="940.7" y1="1306.7" x2="-641.25" y2="393.28"/>
	<line class="st2" x1="927.63" y1="1314.25" x2="-654.32" y2="400.83"/>
	<line class="st2" x1="914.55" y1="1321.79" x2="-667.39" y2="408.38"/>
	<line class="st2" x1="901.48" y1="1329.34" x2="-680.47" y2="415.93"/>
	<line class="st2" x1="888.41" y1="1336.89" x2="-693.54" y2="423.48"/>
	<line class="st2" x1="875.33" y1="1344.44" x2="-706.62" y2="431.02"/>
	<line class="st2" x1="862.26" y1="1351.99" x2="-719.69" y2="438.57"/>
	<line class="st2" x1="849.18" y1="1359.54" x2="-732.76" y2="446.12"/>
	<line class="st2" x1="836.11" y1="1367.09" x2="-745.84" y2="453.67"/>
	<line class="st2" x1="823.04" y1="1374.64" x2="-758.91" y2="461.22"/>
	<line class="st2" x1="809.96" y1="1382.19" x2="-771.99" y2="468.77"/>
	<line class="st2" x1="796.89" y1="1389.73" x2="-785.06" y2="476.32"/>
	<line class="st2" x1="783.81" y1="1397.28" x2="-798.13" y2="483.87"/>
	<line class="st2" x1="770.74" y1="1404.83" x2="-811.21" y2="491.42"/>
	<line class="st2" x1="757.67" y1="1412.38" x2="-824.28" y2="498.96"/>
	<line class="st2" x1="744.59" y1="1419.93" x2="-837.36" y2="506.51"/>
	<line class="st2" x1="731.52" y1="1427.48" x2="-850.43" y2="514.06"/>
	<line class="st2" x1="718.44" y1="1435.03" x2="-863.5" y2="521.61"/>
	<line class="st2" x1="705.37" y1="1442.58" x2="-876.58" y2="529.16"/>
	<line class="st2" x1="692.3" y1="1450.13" x2="-889.65" y2="536.71"/>
	<line class="st2" x1="679.22" y1="1457.67" x2="-902.73" y2="544.26"/>
	<line class="st2" x1="666.15" y1="1465.22" x2="-915.8" y2="551.81"/>
	<line class="st2" x1="653.07" y1="1472.77" x2="-928.87" y2="559.36"/>
</g>
<polygon class="st3" points="4.04,468.77 553.15,151.71 1102.25,468.77 553.15,785.82 "/>
<polygon class="st4" points="499.46,507.53 780.54,669.83 629.19,282.8 "/>
<polygon class="st6" points="424.6,303.64 764.53,499.91 581.49,31.88 "/>
<polygon class="st7" points="589.97,305.45 629.19,282.8 780.54,669.83 741.32,692.48 "/>
<line class="st4" x1="496.19" y1="189.46" x2="535.41" y2="166.81"/>
<polygon class="st8" points="581.49,31.88 620.71,9.23 463.82,280.99 424.6,303.64 "/>
<polygon class="st8" points="803.75,477.26 463.82,280.99 424.6,303.64 764.53,499.91 "/>
<polygon class="st9" points="581.49,31.88 620.71,9.23 803.75,477.26 764.53,499.91 "/>
<polygon class="st10" points="838.35,543.31 554.42,379.37 687.77,147 "/>
<polygon class="st11" points="687.77,147 725.3,126.24 877.8,520.02 838.35,543.31 "/>
<polygon class="st12" points="4.04,468.77 4.04,506.51 4.04,525.39 17.12,548.03 36.73,566.9 43.26,582 49.8,593.33 62.87,589.55 
	75.95,608.42 82.49,627.3 82.49,642.39 89.02,657.49 115.17,657.49 121.71,683.91 128.24,700.9 128.24,721.66 134.78,744.3 
	147.86,732.98 160.93,744.3 167.47,763.18 174,797.15 180.54,812.24 200.15,823.57 213.23,827.34 239.37,838.66 245.91,857.54 
	265.52,872.63 272.06,899.06 298.21,895.28 324.35,887.73 343.96,921.7 343.96,944.35 356.11,978.32 383.19,997.19 415.87,1008.51 
	442.02,997.19 455.09,1004.74 474.7,1019.84 487.78,1042.48 500.85,1065.52 513.93,1080.23 533.54,1091.55 540.07,1117.97 
	553.15,1133.07 553.15,785.82 "/>
<polygon class="st13" points="1102.25,468.77 1102.25,506.51 1102.25,525.39 1089.18,548.03 1069.57,566.9 1063.03,582 
	1056.49,593.33 1043.42,589.55 1030.35,608.42 1023.81,627.3 1023.81,642.39 1017.27,657.49 991.13,657.49 984.59,683.91 
	978.05,700.9 978.05,721.66 971.51,744.3 958.44,732.98 945.37,744.3 938.83,763.18 932.29,797.15 925.76,812.24 906.14,823.57 
	893.07,827.34 866.92,838.66 860.39,857.54 840.77,872.63 834.24,899.06 808.09,895.28 781.94,887.73 762.33,921.7 762.33,944.35 
	750.18,978.32 723.11,997.19 690.42,1008.51 664.28,997.19 651.2,1004.74 631.59,1019.84 618.52,1042.48 605.44,1065.52 
	592.37,1080.23 572.76,1091.55 566.22,1117.97 553.15,1133.07 553.15,785.82 "/>
<polygon class="st17" points="172.39,373.46 285.13,438.55 285.13,264.97 275.74,270.39 275.74,281.24 266.34,292.09 256.95,286.67 
	235.43,297.51 230.51,312.01 223.96,331.68 206.25,330.06 200.58,335.49 196.2,346.34 188.22,351.76 180.02,343.15 172.39,357.19 
	"/>
<polygon class="st15" points="285.13,438.55 397.87,373.46 397.87,351.76 388.48,346.34 382.58,338.89 373.47,335.49 360.29,338.56 
	345.27,326.43 338.06,308.36 327.9,315.28 316.75,308.36 313.32,299.22 307.33,295.55 300.51,295.55 292.16,278.23 285.13,264.97 
	"/>
<polygon class="st14" points="285.13,317.58 275.74,324.64 266.34,332.66 256.95,330.06 244.61,330.06 236.02,337.52 223.3,354.3 
	209.97,351.76 196.2,346.34 188.22,351.76 180.02,343.15 172.39,357.19 172.39,373.46 285.13,438.55 "/>
<path class="st16" d="M285.13,317.58l7.68,15.08l5.57,10.82l5.54,1.31l7.05,4.59l5.78,14.75l7.87,6.23l7.49-7.76l7.59,5.42
	c0,0,3.93,5.24,4.92,5.42c0.98,0.19,15.67,0,15.67,0l12.2-2.76l5.25,5.57v8.82l-92.6,53.47V317.58z"/>
<polygon class="st16" points="285.13,317.58 288.73,324.64 294.53,327.09 303.92,327.09 313.32,327.09 322.71,330.06 327.73,335.49 
	335.11,335.49 344.45,335.49 354.15,333.61 360.29,338.56 373.47,335.49 382.58,338.89 388.48,346.34 397.87,351.76 397.87,373.46 
	341.5,406.01 307.33,373.46 285.13,357.19 "/>
<path class="st18" d="M439.61,665.41c-4.1-2.52-11.38-6.27-12.52-7.36l-43.9-45.85c0,0-14.59-17.68-26.15-22.65
	c-9.83-4.22-59.5-0.75-65.37,0c-4.9,0.63-33.52,13.36-42.83,17.55c-1.9,0.85-4.51,0.41-4.51,0.41l-122.62-70.8l91.52-30.2
	c0,0,79.63-3.77,98.05,0c17.63,3.61,45.76,22.65,45.76,22.65s65.37,45.29,91.52,52.84c25.74,7.43,65.37-7.55,65.37-7.55
	s68.49-10.22,91.52-11.32c17.98-0.86,62.59,1.73,71.91,3.77c8.35,1.83,38.42,18.06,52.3,18.87c19.94,1.17,78.44-15.1,78.44-15.1
	s59.11-11.33,78.44-7.55c14.38,2.81,26.15,15.1,26.15,15.1l-91.52,52.84c0,0-59.1-3.35-78.44,0c-14.64,2.53-40.56,15.16-54.95,18.87
	c-21.53,5.56-88.86,3.77-88.86,3.77l-39.22-3.77h-13.07l-39.22,7.55l-30.84,10.27c-2.07,0.97-10.18,3.38-20.19,2.99l-11.46-2.95
	C443.78,667.61,440.57,666.01,439.61,665.41"/>
<g>
	<polygon points="448.56,407.59 445.59,406.1 445.59,385.6 448.56,384.28 451.44,385.54 451.44,406.3 	"/>
	<g>
		<polygon class="st14" points="448.56,395.39 435.85,388.06 448.56,365.2 		"/>
		<polyline class="st16" points="448.56,365.41 448.56,395.6 461.26,388.27 		"/>
		<polygon class="st14" points="448.56,384.07 435.85,376.73 448.56,353.87 		"/>
		<polyline class="st16" points="448.56,354.09 448.56,384.28 461.26,376.94 		"/>
		<polygon class="st14" points="448.56,371.42 435.85,364.08 448.56,341.23 		"/>
		<polyline class="st16" points="448.56,341.44 448.56,371.63 461.26,364.29 		"/>
	</g>
</g>
<g>
	<polygon points="946.57,516.87 944.68,515.93 944.68,502.89 946.57,502.05 948.4,502.86 948.4,516.06 	"/>
	<g>
		<polygon class="st14" points="946.57,509.12 938.49,504.45 946.57,489.92 		"/>
		<polyline class="st16" points="946.57,490.06 946.57,509.25 954.65,504.59 		"/>
		<polygon class="st14" points="946.57,501.92 938.49,497.25 946.57,482.72 		"/>
		<polyline class="st16" points="946.57,482.86 946.57,502.05 954.65,497.39 		"/>
		<polygon class="st14" points="946.57,493.88 938.49,489.21 946.57,474.68 		"/>
		<polyline class="st16" points="946.57,474.81 946.57,494.01 954.65,489.35 		"/>
	</g>
</g>
<g>
	<polygon points="729.65,560.68 726.68,559.2 726.68,538.69 729.65,537.37 732.53,538.63 732.53,559.4 	"/>
	<g>
		<polygon class="st14" points="729.65,548.48 716.94,541.15 729.65,518.29 		"/>
		<polyline class="st16" points="729.65,518.5 729.65,548.7 742.35,541.36 		"/>
		<polygon class="st14" points="729.65,537.16 716.94,529.82 729.65,506.97 		"/>
		<polyline class="st16" points="729.65,507.18 729.65,537.37 742.35,530.04 		"/>
		<polygon class="st14" points="729.65,524.51 716.94,517.17 729.65,494.32 		"/>
		<polyline class="st16" points="729.65,494.53 729.65,524.72 742.35,517.39 		"/>
	</g>
</g>
<g>
	<polygon points="161.11,511.61 159.63,510.87 159.63,500.62 161.11,499.96 162.55,500.59 162.55,510.97 	"/>
	<g>
		<polygon class="st14" points="161.11,505.51 154.76,501.85 161.11,490.42 		"/>
		<polyline class="st16" points="161.11,490.52 161.11,505.62 167.47,501.95 		"/>
		<polygon class="st14" points="161.11,499.85 154.76,496.18 161.11,484.76 		"/>
		<polyline class="st16" points="161.11,484.86 161.11,499.96 167.47,496.29 		"/>
		<polygon class="st14" points="161.11,493.53 154.76,489.86 161.11,478.43 		"/>
		<polyline class="st16" points="161.11,478.54 161.11,493.63 167.47,489.97 		"/>
	</g>
</g>
<g>
	<polygon points="169.41,479.92 167.47,478.95 167.47,465.57 169.41,464.7 171.3,465.53 171.3,479.08 	"/>
	<g>
		<polygon class="st14" points="169.41,471.96 161.11,467.17 169.41,452.24 		"/>
		<polyline class="st16" points="169.41,452.38 169.41,472.1 177.71,467.31 		"/>
		<polygon class="st14" points="169.41,464.56 161.11,459.77 169.41,444.85 		"/>
		<polyline class="st16" points="169.41,444.98 169.41,464.7 177.71,459.91 		"/>
		<polygon class="st14" points="169.41,456.3 161.11,451.51 169.41,436.59 		"/>
		<polyline class="st16" points="169.41,436.72 169.41,456.44 177.71,451.65 		"/>
	</g>
</g>
<g>
	<polygon points="339.65,486.85 337.11,485.58 337.11,468.07 339.65,466.94 342.11,468.02 342.11,485.75 	"/>
	<g>
		<polygon class="st14" points="339.65,476.44 328.79,470.17 339.65,450.65 		"/>
		<polyline class="st16" points="339.65,450.83 339.65,476.62 350.5,470.35 		"/>
		<polygon class="st14" points="339.65,466.76 328.79,460.5 339.65,440.97 		"/>
		<polyline class="st16" points="339.65,441.15 339.65,466.94 350.5,460.68 		"/>
		<polygon class="st14" points="339.65,455.96 328.79,449.69 339.65,430.17 		"/>
		<polyline class="st16" points="339.65,430.35 339.65,456.14 350.5,449.87 		"/>
	</g>
</g>
<g>
	<polygon points="134.78,487.64 131.82,486.16 131.82,465.65 134.78,464.33 137.67,465.59 137.67,486.36 	"/>
	<g>
		<polygon class="st14" points="134.78,475.44 122.07,468.11 134.78,445.25 		"/>
		<polyline class="st16" points="134.78,445.46 134.78,475.66 147.49,468.32 		"/>
		<polygon class="st14" points="134.78,464.12 122.07,456.78 134.78,433.93 		"/>
		<polyline class="st16" points="134.78,434.14 134.78,464.33 147.49,457 		"/>
		<polygon class="st14" points="134.78,451.47 122.07,444.14 134.78,421.28 		"/>
		<polyline class="st16" points="134.78,421.49 134.78,451.68 147.49,444.35 		"/>
	</g>
</g>
<polygon points="389.72,467.98 386.76,466.5 386.76,445.99 389.72,444.67 392.61,445.93 392.61,466.69 "/>
<g>
	<polygon class="st14" points="389.72,455.78 377.02,448.45 389.72,425.59 	"/>
	<polyline class="st16" points="389.72,425.8 389.72,456 402.43,448.66 	"/>
	<polygon class="st14" points="389.72,444.46 377.02,437.12 389.72,414.27 	"/>
	<polyline class="st16" points="389.72,414.48 389.72,444.67 402.43,437.33 	"/>
	<polygon class="st14" points="389.72,431.81 377.02,424.47 389.72,401.62 	"/>
	<polyline class="st16" points="389.72,401.83 389.72,432.02 402.43,424.69 	"/>
</g>
<g>
	<polygon points="692.64,539.7 690.81,538.78 690.81,526.14 692.64,525.32 694.42,526.1 694.42,538.9 	"/>
	<g>
		<polygon class="st14" points="692.64,532.17 684.8,527.65 692.64,513.55 		"/>
		<polyline class="st16" points="692.64,513.68 692.64,532.3 700.48,527.78 		"/>
		<polygon class="st14" points="692.64,525.19 684.8,520.67 692.64,506.57 		"/>
		<polyline class="st16" points="692.64,506.7 692.64,525.32 700.48,520.8 		"/>
		<polygon class="st14" points="692.64,517.39 684.8,512.86 692.64,498.77 		"/>
		<polyline class="st16" points="692.64,498.9 692.64,517.52 700.48,512.99 		"/>
	</g>
</g>
<polygon points="971.51,490.63 968.55,489.14 968.55,468.64 971.51,467.32 974.4,468.58 974.4,489.34 "/>
<g>
	<polygon class="st14" points="971.51,478.43 958.81,471.09 971.51,448.24 	"/>
	<polyline class="st16" points="971.51,448.45 971.51,478.64 984.22,471.3 	"/>
	<polygon class="st14" points="971.51,467.11 958.81,459.77 971.51,436.91 	"/>
	<polyline class="st16" points="971.51,437.12 971.51,467.32 984.22,459.98 	"/>
	<polygon class="st14" points="971.51,454.46 958.81,447.12 971.51,424.26 	"/>
	<polyline class="st16" points="971.51,424.47 971.51,454.67 984.22,447.33 	"/>
</g>
<linearGradient id="SVGID_1_" gradientUnits="userSpaceOnUse" x1="579.5851" y1="467.2167" x2="674.8915" y2="310.5672">
	<stop  offset="0" style="stop-color:#333333;stop-opacity:0"/>
	<stop  offset="0.8425" style="stop-color:#333333;stop-opacity:0.8221"/>
</linearGradient>
<polygon class="st19" points="838.35,543.31 424.6,303.64 346.27,349.29 758.58,587.38 "/>
<linearGradient id="SVGID_00000095296407626283984210000004934077181332602295_" gradientUnits="userSpaceOnUse" x1="177.9393" y1="448.0472" x2="265.4802" y2="304.1614">
	<stop  offset="0" style="stop-color:#333333;stop-opacity:0"/>
	<stop  offset="0.7899" style="stop-color:#333333"/>
</linearGradient>
<polygon style="fill:url(#SVGID_00000095296407626283984210000004934077181332602295_);" points="285.13,438.55 172.45,373.47 
	94.12,419.11 205.66,483.87 "/>
<linearGradient id="SVGID_00000089538772063188778630000015489392108658273710_" gradientUnits="userSpaceOnUse" x1="119.6487" y1="498.8282" x2="147.1089" y2="453.6933">
	<stop  offset="0" style="stop-color:#333333;stop-opacity:0"/>
	<stop  offset="0.7899" style="stop-color:#333333"/>
</linearGradient>
<polygon style="fill:url(#SVGID_00000089538772063188778630000015489392108658273710_);" points="137.67,486.36 134.63,484.59 
	108.96,499.25 108.96,499.25 "/>
<linearGradient id="SVGID_00000180343897905869283880000003208930986263045017_" gradientUnits="userSpaceOnUse" x1="153.884" y1="491.7478" x2="181.2716" y2="446.7324">
	<stop  offset="0" style="stop-color:#333333;stop-opacity:0"/>
	<stop  offset="0.7899" style="stop-color:#333333"/>
</linearGradient>
<polygon style="fill:url(#SVGID_00000180343897905869283880000003208930986263045017_);" points="171.3,479.08 169.4,477.82 
	143.73,492.48 143.73,492.48 "/>
<linearGradient id="SVGID_00000085964957131816832670000018203132544290721415_" gradientUnits="userSpaceOnUse" x1="145.3485" y1="523.7314" x2="172.7361" y2="478.7159">
	<stop  offset="0" style="stop-color:#333333;stop-opacity:0"/>
	<stop  offset="0.7899" style="stop-color:#333333"/>
</linearGradient>
<polygon style="fill:url(#SVGID_00000085964957131816832670000018203132544290721415_);" points="162.55,510.97 161.06,509.92 
	135.39,524.58 136.74,523.81 "/>
<linearGradient id="SVGID_00000037681857804469722430000007347610922091515541_" gradientUnits="userSpaceOnUse" x1="324.094" y1="498.3253" x2="351.5543" y2="453.1905">
	<stop  offset="0" style="stop-color:#333333;stop-opacity:0"/>
	<stop  offset="0.7899" style="stop-color:#333333"/>
</linearGradient>
<polyline style="fill:url(#SVGID_00000037681857804469722430000007347610922091515541_);" points="342.11,485.85 339.08,484.09 
	313.41,498.75 "/>
<linearGradient id="SVGID_00000064350749576024349560000012433459864263485071_" gradientUnits="userSpaceOnUse" x1="372.3571" y1="480.3512" x2="399.8173" y2="435.2163">
	<stop  offset="0" style="stop-color:#333333;stop-opacity:0"/>
	<stop  offset="0.7899" style="stop-color:#333333"/>
</linearGradient>
<polyline style="fill:url(#SVGID_00000064350749576024349560000012433459864263485071_);" points="390.37,467.88 387.34,466.11 
	361.67,480.77 "/>
<linearGradient id="SVGID_00000161615352450731304370000008437936979666694537_" gradientUnits="userSpaceOnUse" x1="433.4234" y1="418.4958" x2="460.8837" y2="373.3609">
	<stop  offset="0" style="stop-color:#333333;stop-opacity:0"/>
	<stop  offset="0.7899" style="stop-color:#333333"/>
</linearGradient>
<polyline style="fill:url(#SVGID_00000161615352450731304370000008437936979666694537_);" points="451.44,406.02 448.41,404.26 
	422.74,418.92 "/>
<linearGradient id="SVGID_00000034795289194037714490000006966249624632341139_" gradientUnits="userSpaceOnUse" x1="714.5133" y1="571.811" x2="741.9736" y2="526.6761">
	<stop  offset="0" style="stop-color:#333333;stop-opacity:0"/>
	<stop  offset="0.7899" style="stop-color:#333333"/>
</linearGradient>
<polyline style="fill:url(#SVGID_00000034795289194037714490000006966249624632341139_);" points="732.53,559.34 729.5,557.57 
	703.83,572.23 "/>
<linearGradient id="SVGID_00000099648537376385536280000007222673051005758378_" gradientUnits="userSpaceOnUse" x1="955.1398" y1="502.0998" x2="982.6001" y2="456.9649">
	<stop  offset="0" style="stop-color:#333333;stop-opacity:0"/>
	<stop  offset="0.7899" style="stop-color:#333333"/>
</linearGradient>
<polyline style="fill:url(#SVGID_00000099648537376385536280000007222673051005758378_);" points="973.16,489.63 970.12,487.86 
	944.46,502.52 "/>
<linearGradient id="SVGID_00000064351113949130525490000011809893945395135662_" gradientUnits="userSpaceOnUse" x1="676.9642" y1="551.603" x2="704.3519" y2="506.5876">
	<stop  offset="0" style="stop-color:#333333;stop-opacity:0"/>
	<stop  offset="0.7899" style="stop-color:#333333"/>
</linearGradient>
<polygon style="fill:url(#SVGID_00000064351113949130525490000011809893945395135662_);" points="694.17,538.84 692.67,537.79 
	667.01,552.45 668.36,551.68 "/>
<linearGradient id="SVGID_00000060736992827659215750000006070291581830363320_" gradientUnits="userSpaceOnUse" x1="931.9" y1="527.9188" x2="958.1958" y2="484.6978">
	<stop  offset="0" style="stop-color:#333333;stop-opacity:0"/>
	<stop  offset="0.7899" style="stop-color:#333333"/>
</linearGradient>
<polygon style="fill:url(#SVGID_00000060736992827659215750000006070291581830363320_);" points="948.4,516.04 946.93,514.62 
	922.32,528.43 922.59,528.88 "/>
<line class="st31" x1="128.24" y1="540.48" x2="128.24" y2="534.82"/>
<polyline class="st32" points="7.31,470.66 17.12,487.64 36.73,506.51 43.26,521.61 49.8,532.93 62.87,529.16 75.95,548.03 
	82.49,566.9 82.49,582 89.02,597.1 115.17,597.1 121.71,623.52 128.24,640.51 128.24,661.27 134.78,683.91 147.86,672.59 
	160.93,683.91 167.47,702.78 174,736.75 180.54,751.85 200.15,763.18 213.23,766.95 239.37,778.27 245.91,797.15 265.52,812.24 
	272.06,838.66 298.21,834.89 324.35,827.34 343.96,861.31 343.96,883.96 356.11,917.93 383.19,936.8 415.87,948.12 442.02,936.8 
	455.09,944.35 474.7,959.45 487.78,982.09 500.85,1005.13 513.93,1019.84 533.54,1031.16 540.07,1057.58 553.15,1072.68 
	553.15,785.82 "/>
<polyline class="st33" points="553.15,785.82 553.15,967 540.07,951.9 533.54,925.48 513.93,914.15 500.85,899.44 487.78,876.41 
	474.7,853.76 455.09,838.66 442.02,831.12 415.87,842.44 383.19,831.12 356.11,812.24 343.96,778.27 343.96,755.63 324.35,721.66 
	298.21,729.21 272.06,732.98 265.52,706.56 245.91,691.46 239.37,672.59 213.23,661.27 200.15,657.49 180.54,646.17 174,631.07 
	167.47,597.1 160.93,578.23 147.86,566.9 134.78,578.23 128.24,555.58 128.24,540.48 "/>
<polyline class="st18" points="244.33,607.51 239.37,610.11 232.84,610.11 223.74,610.11 202,606.2 184.41,600.87 171.95,593.33 
	164.85,589.55 154.39,583.97 145.56,577.13 135.39,566.9 124.8,555.58 121.71,540.48 121.71,536.71 "/>
</svg>
